<svg width="66" height="66" viewBox="0 0 66 66" fill="none" xmlns="http://www.w3.org/2000/svg">
<g clip-path="url(#clip0_121_970)">
<path d="M29.9887 65.6083H14.1787C13.8929 65.3708 13.6593 65.0678 13.4948 64.7211C13.3302 64.3743 13.2387 63.9925 13.2268 63.603C13.1394 60.4235 12.8485 57.2264 13.5869 54.0953C14.793 52.4858 15.214 52.455 16.1232 54.0403C16.3788 54.4918 16.7267 54.8739 17.1402 55.1573C17.7557 55.586 18.4476 55.8701 19.1711 55.9913C19.8947 56.1125 20.6337 56.0681 21.3403 55.861C22.4183 55.5619 23.4617 55.2585 23.7078 53.7853C23.8624 52.8574 24.556 52.5781 25.3594 52.5649C27.5215 52.9629 28.628 54.8913 30.066 56.3447C30.5559 57.1067 30.897 57.9686 31.0687 58.8777C31.3494 61.2437 31.681 63.614 29.9887 65.6083Z" fill="#EB1764"/>
<path d="M58.096 65.6083H44.0434C42.7864 64.0867 43.7464 62.4683 43.8787 60.8896C43.958 59.9375 44.3282 59.069 44.6292 58.1851C44.9267 57.3585 45.1846 56.516 45.4021 55.6608C45.5952 55.1798 45.9241 54.7773 46.3418 54.5108C47.0868 54.1519 47.9181 54.0587 48.7154 54.2448C50.2287 54.1458 51.7399 53.9985 53.2491 53.8358C53.5847 53.7918 53.9163 53.7259 54.2519 53.6951C55.218 53.8798 55.8648 54.601 56.5421 55.2782C57.4513 56.3622 57.5591 57.8266 58.0879 59.0954C58.5578 61.2678 59.9266 63.4358 58.096 65.6083Z" fill="#2BB8C5"/>
<path d="M14.2377 53.7698C14.2174 57.7174 14.1977 61.6636 14.1787 65.6083H4.07809C3.51061 64.4319 1.61496 64.5088 1.7187 62.6882C6.11002 60.872 8.5528 56.4128 12.218 53.6071C12.7 53.2377 13.1475 52.8529 13.7862 52.9716C14.1218 53.1146 14.3577 53.3257 14.2377 53.7698Z" fill="#1F1C1C"/>
<path d="M65.1783 57.4727C65.4163 57.8443 65.3959 58.46 65.9919 58.4797V59.9068C64.3647 63.249 62.9918 63.5238 60.2154 61.1975C59.0439 60.2146 57.9781 59.19 57.3414 57.7168C57.1665 56.6569 56.479 55.9797 55.7936 55.2981C55.2383 54.5241 54.4227 54.0557 53.8166 53.3367C53.6315 52.897 53.7535 52.4572 53.8329 52.0174C53.886 51.6768 54.0083 51.3532 54.1908 51.0697C54.5094 50.6039 54.9369 50.2381 55.4295 50.0099C55.7364 49.9165 56.0606 49.9114 56.3699 49.9951C56.6792 50.0788 56.9629 50.2484 57.193 50.4871C57.913 51.0016 58.3788 51.9647 59.4018 51.9471C60.8256 52.3561 61.8914 53.4533 63.0813 54.3108C63.842 55.3223 64.5152 56.3953 65.1783 57.4727Z" fill="#46BFCB"/>
<path d="M34.8275 62.7587C33.8614 62.7389 33.4708 61.6351 32.4681 61.3316C31.8823 62.7235 32.2464 64.1901 32.1854 65.6083H29.9887L30.3426 58.493C30.4819 58.2904 30.6805 58.1448 30.906 58.0796C33.3895 58.7326 34.9312 60.5774 34.8275 62.7587Z" fill="#261E1F"/>
<path d="M0.557319 60.8699L0.124084 60.8567V58.4798C0.240472 58.4899 0.357336 58.4679 0.463765 58.416L0.803446 58.6359C1.33431 59.4561 1.32209 60.2124 0.557319 60.8699Z" fill="#503C2E"/>
<path d="M2.73773 53.6753C4.07811 51.7997 4.08013 49.6295 4.06996 47.3889C4.02521 38.0505 4.06997 28.7099 4.05573 19.3716C4.04557 15.4533 4.68626 11.6449 5.70324 7.92451C7.3121 2.04708 10.4932 -0.327644 16.0968 0.0307632C17.4039 0.115779 18.7142 0.126058 20.0223 0.0615498C23.9926 -0.138542 27.7127 2.80127 29.5148 7.18131C30.7128 10.0925 31.0423 13.2742 32.159 16.1965C31.7115 16.6626 31.8478 17.1222 32.1712 17.5773L32.1997 41.3839C30.4688 42.0589 29.2423 40.5044 27.7249 40.2053C27.2714 39.9173 26.8585 39.5457 26.3418 39.3918C24.8169 38.9944 23.3909 38.2409 22.1641 37.1842C20.3559 35.8957 21.1471 33.9145 21.021 32.1819C21.1797 30.8164 22.278 30.2865 23.1241 29.6202C26.5493 26.9245 27.8022 23.3426 27.1798 18.8658C26.9602 17.2761 26.2056 16.4471 24.7513 16.3812C23.3621 16.3174 21.9851 16.2338 20.6569 15.7215C20.277 15.5599 19.861 15.5247 19.4624 15.6203C19.0638 15.7159 18.7007 15.9379 18.4196 16.258C16.2615 18.525 13.5665 19.3166 10.6783 19.664C7.68228 20.0246 7.68636 20.0598 9.27489 22.7533C9.58425 23.2907 9.82378 23.8715 9.98677 24.4794C10.597 26.6496 11.7644 28.4241 13.2269 30.0248C13.9204 30.7834 14.8886 31.4035 14.8215 32.7162C14.8215 34.2817 14.8215 35.8451 14.8215 37.4085V38.9916C14.9435 41.4301 14.4717 43.9213 15.3747 46.2917C15.6981 47.7781 14.8581 48.7104 13.9164 49.458C11.3888 51.4384 8.81994 53.3601 6.20969 55.2233C5.45306 55.7642 4.66185 56.116 3.76894 55.5993C3.05095 55.2145 3.36012 54.148 2.73773 53.6753Z" fill="#1E1C1C"/>
<path d="M42.3796 25.7679C42.1679 23.9624 42.3291 22.1286 42.8515 20.3984C43.9966 16.423 46.5126 14.2813 50.3222 13.8569C54.1969 13.4172 57.9028 15.295 59.4893 18.4745C60.7097 20.9151 60.2195 23.5515 60.2622 26.1307C57.9414 28.2834 57.7625 28.3296 55.4458 25.8911C54.7075 25.1171 54.2722 25.1545 53.4118 25.7064C51.2416 27.118 49.1202 28.6594 46.5492 29.2245C45.5668 29.4444 44.6963 29.5235 43.8237 28.9562C42.9756 28.0965 43.4352 26.5287 42.3796 25.7679Z" fill="#38110C"/>
<path d="M56.7414 51.239L55.6634 50.4122C55.0979 50.443 54.6647 50.1528 54.2782 49.7526C54.1159 49.4618 53.922 49.1932 53.7006 48.9522C53.5561 48.7907 53.4335 48.6078 53.3365 48.4091C52.3053 46.1553 52.0694 46.0542 49.9337 46.9777C49.4232 47.6989 48.8089 48.3388 48.5486 49.2403C48.4575 49.4368 48.3563 49.6276 48.2455 49.812C47.5825 50.3265 47.0252 50.9993 46.3356 51.4655C45.9784 51.5638 45.6096 51.6046 45.2414 51.5864C45.0848 51.5864 44.922 51.5864 44.7634 51.6018C44.6902 51.6172 44.6129 51.6282 44.5417 51.6502C44.3506 51.8137 44.1991 52.025 44.1003 52.2659C43.5979 53.0464 43.1647 53.871 42.6237 54.6208C42.1812 55.1063 41.6307 55.4607 41.025 55.6498C40.4148 55.7114 39.8737 56.0148 39.3388 56.3227C39.0419 56.4694 38.7044 56.4883 38.3951 56.3754C38.1974 56.2648 38.0388 56.0872 37.9435 55.8697C37.7259 55.2276 38.0656 54.7087 38.269 54.1612C39.3246 50.7223 40.9619 47.5648 42.3369 44.2819C43.6264 40.1899 45.1315 38.941 48.3045 39.3324C48.813 39.5523 49.1547 40.0052 49.5676 40.3592C49.8442 40.7528 50.1351 41.131 50.6253 41.2388C50.9068 41.3091 51.1997 41.3059 51.4799 41.2294C51.76 41.1529 52.0193 41.0054 52.2362 40.799C52.5514 40.4758 52.8301 40.1108 53.2145 39.8755C55.6308 38.6596 57.5204 39.2488 59.2899 41.7621C59.8208 42.6614 59.8005 43.7872 60.3069 44.6997C61.8893 48.2816 63.5348 51.8371 64.6921 55.619C64.8955 56.2061 64.5538 56.2787 64.1857 56.1512C63.5909 55.9279 63.0323 55.6051 62.53 55.1947L59.0438 52.7958C58.5089 51.8745 57.7808 51.2874 56.7414 51.239Z" fill="#2BB8C5"/>
<path d="M44.0617 28.5055C48.3635 28.0482 51.9107 26.0296 54.8681 22.4192C55.3868 23.4658 55.7956 24.6334 56.4811 25.5591C57.0628 26.3419 57.7726 28.1317 58.936 25.9351C59.2838 25.2754 59.833 25.9065 60.2622 26.1396L60.25 27.947C59.6093 28.6067 59.6398 29.5126 59.5279 30.3657C58.814 33.9564 57.0627 36.6104 53.7698 37.8879C52.2667 38.3694 50.7595 38.5013 49.2442 37.9538C48.801 37.772 48.3463 37.625 47.8835 37.5141C45.3939 35.9419 43.4515 33.9212 43.0549 30.6252C43.1789 29.7962 43.3701 29.0068 44.0617 28.5055Z" fill="#F8AA63"/>
<path d="M27.7941 39.4555C29.4823 39.5149 30.9813 40.0712 32.1996 41.3883L35.275 49.4403C35.3604 50.5859 34.559 51.1048 33.9041 51.7315C33.1597 52.0393 32.3786 52.2372 31.6423 52.5803C28.9982 52.3978 27.1473 50.8762 25.7438 48.5674C25.6828 47.5384 25.5404 46.5313 25.0035 45.643C24.8363 45.3549 24.6998 45.0473 24.5967 44.7261C24.5682 44.5014 24.5682 44.2735 24.5967 44.0488C24.7989 43.2925 24.9438 42.5196 25.0299 41.7379C25.2663 41.0995 25.6043 40.5109 26.0286 39.9986C26.5351 39.5039 27.0985 39.2312 27.7941 39.4555Z" fill="#EB1764"/>
<path d="M44.0149 30.9725C44.6251 33.6265 46.4943 35.1503 48.3899 36.6477C49.0896 37.7735 49.4679 38.8905 48.3289 39.9767C45.5912 40.1966 43.6915 41.7885 42.3409 44.2754C42.3491 39.0422 42.3579 33.8105 42.3674 28.5802C43.1525 27.9755 43.6549 28.1581 43.8115 29.2135C43.8969 29.7962 43.6854 30.4206 44.0149 30.9725Z" fill="#37130E"/>
<path d="M31.7277 51.9977C32.1345 51.2962 32.8037 51.0346 33.4932 50.8191C34.2275 50.7575 34.8316 49.8516 35.6614 50.4343L37.5042 54.7924C37.9354 55.142 38.0452 55.7115 38.3178 56.1754L38.3666 56.2062C38.4192 56.3171 38.4332 56.4448 38.406 56.5659C38.3787 56.687 38.312 56.7935 38.2181 56.8658C35.7692 57.3056 31.9535 54.4449 31.7277 51.9977Z" fill="#EFA461"/>
<path d="M58.9666 29.9787C58.8262 28.8793 58.9768 27.9998 60.25 27.947L60.3049 44.6822C59.6737 44.033 59.209 43.2178 58.9564 42.3163C58.8344 38.5783 58.572 34.8227 59.1883 31.1023C59.2272 30.9088 59.2275 30.7085 59.1893 30.5147C59.1511 30.321 59.0751 30.1383 58.9666 29.9787Z" fill="#271E1E"/>
<path d="M44.0149 30.9725C43.1728 30.4096 44.2183 28.323 42.3654 28.5802C42.1437 27.6413 42.0054 26.7046 42.3776 25.7679C44.6882 25.4205 43.8379 27.3489 44.0617 28.5055C44.0454 29.3278 44.0312 30.148 44.0149 30.9725Z" fill="#DB985A"/>
<path d="M2.73773 53.6753C3.12825 53.5764 3.44757 52.8265 3.78724 53.1894C4.29573 53.7281 3.94386 54.4405 3.66724 55.0518C3.93573 55.9467 3.44147 56.3073 2.77229 56.5448C2.5801 56.5727 2.38448 56.5447 2.20568 56.4635C2.02688 56.3823 1.87139 56.251 1.75531 56.083C1.70853 55.1067 2.37976 54.4669 2.73773 53.6753Z" fill="#C97F4A"/>
<path d="M62.5301 55.1771C63.2908 55.0826 63.8399 56.2436 64.6922 55.6015C65.1579 56.1336 65.1681 56.8021 65.1783 57.4727C64.2996 56.7031 63.1911 56.2414 62.5301 55.1771Z" fill="#295359"/>
<path d="M1.75938 56.094L2.7011 56.127C3.16891 58.0246 2.34924 58.693 0.705799 58.5787C0.624441 58.5303 0.54307 58.4775 0.463745 58.4225C0.957998 57.6793 0.593918 56.3842 1.75938 56.094Z" fill="#634732"/>
<path d="M35.6533 50.4343L33.4932 50.8169L35.275 49.4382L35.6533 50.4343Z" fill="#623435"/>
<path d="M38.3076 56.1754C37.6974 55.9555 37.5083 55.43 37.494 54.7901L38.2588 54.1547C38.2812 54.8275 38.2974 55.5025 38.3076 56.1754Z" fill="#395857"/>
<path d="M32.1711 17.5817C31.7033 17.3377 31.3453 16.9793 31.4735 16.3768C31.5589 15.9722 31.8965 16.1217 32.1589 16.2009L32.1711 17.5817Z" fill="#57402F"/>
<path d="M31.7277 51.9976C33.6946 53.8688 35.7956 55.5026 38.2364 56.6152C39.2534 56.8065 39.831 57.4375 39.8839 58.5787C39.8148 59.7617 40.1483 61.1051 38.812 61.7956C37.7055 63.183 36.3713 63.4183 34.8336 62.7609L30.7901 58.4358C30.1941 58.0576 29.7731 57.4265 29.1222 57.1165C28.2537 55.5773 27.0049 54.4779 25.6299 53.5038C24.7899 52.2923 24.257 53.2839 23.657 53.8271C22.0156 54.9572 21.1369 53.6072 20.1667 52.5671C19.5423 50.4959 19.9633 48.8511 21.8529 47.8397C22.5729 47.4527 23.0244 46.6435 23.838 46.4214C25.1458 46.2455 25.992 46.8788 26.4618 48.1805C27.8449 50.0451 29.7182 51.1313 31.7277 51.9976Z" fill="#F7AA63"/>
<path d="M23.8218 53.1498C24.4808 52.9299 25.3208 51.6106 25.6238 53.506C24.3689 52.9871 24.2001 53.9018 24.3058 54.8253C24.5092 56.8043 23.596 57.244 22.0034 57.1319C19.9878 56.9955 17.964 57.0044 15.9442 56.9494C15.8864 56.84 15.8636 56.713 15.8794 56.5881C15.8952 56.4632 15.9488 56.3475 16.0317 56.259C16.1993 56.0897 16.4013 55.9654 16.6216 55.8961C18.4155 55.0848 20.36 55.7356 22.1804 55.2233C23.0611 54.8429 23.2706 53.838 23.8218 53.1498Z" fill="#612A35"/>
<path d="M15.9829 56.5074C15.9706 56.6547 15.9564 56.802 15.9442 56.9471C15.3055 56.2281 15.6086 55.3222 15.5374 54.4976C15.4499 53.4686 15.1794 52.9431 14.2336 53.7698L13.8838 53.2641C14.3394 51.7249 14.673 51.626 16.4039 52.4549C16.5838 52.6536 16.7164 52.8966 16.7903 53.1629C17.0059 54.4119 16.831 55.5553 15.9829 56.5074Z" fill="#662A36"/>
<path d="M29.1161 57.1187C29.4716 57.1788 29.8086 57.3299 30.0991 57.5594C30.3895 57.7889 30.6251 58.0901 30.786 58.4379L30.3426 58.4973L29.1161 57.1187Z" fill="#72243B"/>
<path d="M38.9687 58.4577L38.2303 56.6129C38.2751 56.4788 38.3158 56.3425 38.3565 56.2061L39.0134 55.6388C39.6745 55.6388 40.0304 55.0847 40.4758 54.6977C40.7639 54.6779 41.0424 54.5777 41.284 54.407C41.5257 54.2363 41.7223 54.0009 41.8549 53.7237C42.6989 53.4312 43.3945 52.9343 43.8278 52.0702C44.0739 51.7513 44.2956 51.3951 44.7309 51.3577C45.2166 51.3559 45.6983 51.2629 46.1546 51.0829C47.0699 50.3045 47.6394 50.9048 48.1764 51.6678C48.2827 51.8654 48.3551 52.0822 48.39 52.3076C48.9737 54.0667 47.5764 54.3987 46.6916 55.1045L46.1913 56.1621C45.7336 56.4128 45.3777 56.8218 44.8916 57.0417L40.4901 61.4393C39.7233 61.7054 39.4975 61.2942 39.4121 60.5378C39.3409 59.832 39.7985 58.97 38.9687 58.4577Z" fill="#46BEC9"/>
<path d="M54.1766 54.4076L53.8206 54.6934C52.2606 55.1486 50.6741 54.8231 49.1039 54.8935C48.3615 54.6186 48.392 53.9612 48.4327 53.3015C49.35 51.8283 48.1703 50.3507 48.4327 48.8687C48.8212 47.7803 48.3778 46.5446 48.9493 45.4892C49.4557 45.4035 49.9692 45.377 50.4809 45.41C53.6132 45.3924 53.6132 45.3924 54.2091 48.3608V48.5213C54.5244 49.5987 53.8186 50.199 53.2837 50.8741C53.0376 51.2369 52.9887 51.5953 53.3406 51.9383C53.461 52.091 53.5686 52.2551 53.662 52.4286C53.7627 52.9367 53.9518 53.4195 54.2193 53.8512C54.2728 53.935 54.2979 54.0362 54.2901 54.1377C54.2823 54.2391 54.2422 54.3345 54.1766 54.4076Z" fill="#8E8C8C"/>
<path d="M48.929 52.8771C48.9032 53.4635 48.8781 54.0498 48.8537 54.6362C48.8388 54.7371 48.7938 54.83 48.7255 54.9006C48.6572 54.9713 48.5693 55.0159 48.4754 55.0276C47.8652 54.5702 47.2916 55.0869 46.6998 55.0979C46.9866 54.1656 48.514 53.6775 47.5499 52.2988C48.2415 51.8415 48.6707 52.1097 48.929 52.8771Z" fill="#2E585E"/>
<path d="M48.4673 55.0342L48.8456 54.6428L53.8125 54.6934C52.0877 55.685 50.2714 55.1903 48.4673 55.0342Z" fill="#414B4D"/>
<path d="M57.6404 57.0835C56.9936 57.5782 57.3984 58.3698 57.1828 58.9877C56.5726 57.963 56.7984 56.5514 55.8892 55.6587C55.7549 55.5509 55.7102 55.4388 55.7549 55.3376C55.7997 55.2365 55.8465 55.1771 55.8912 55.1771C56.6626 55.5719 57.2815 56.2465 57.6404 57.0835Z" fill="#2E696F"/>
<path d="M55.8912 55.1771C55.8912 55.3376 55.8912 55.4981 55.8912 55.6586L54.1786 54.4075C54.1235 54.3477 54.0788 54.2777 54.0464 54.2008C53.9224 53.8182 53.8674 53.4466 54.2132 53.1498C54.7719 53.827 55.3312 54.5028 55.8912 55.1771Z" fill="#275F65"/>
<path d="M44.8997 57.0373C45.1031 56.3557 45.5424 56.0655 46.1994 56.1578C45.9377 56.7867 45.676 57.417 45.4143 58.0488L44.8997 57.0373Z" fill="#2A5F65"/>
<path d="M16.3714 53.2026C15.5293 52.5628 14.6995 52.5034 13.8879 53.2642C11.321 55.9446 8.69317 58.5633 6.21173 61.3361C4.94458 62.7499 3.61029 63.2468 1.90379 62.6905L0.557312 60.8699C0.606127 60.1047 0.656997 59.3307 0.705812 58.5721C1.21227 57.6047 2.33297 57.2155 2.70111 56.1205C3.02451 55.7664 3.34588 55.4102 3.66725 55.0562C4.01709 55.0233 4.46048 55.1266 4.70049 54.9353C8.15822 52.156 12.1895 50.1968 15.0737 46.5952L15.389 46.4325C15.9992 46.3951 16.5178 46.7117 17.0446 46.9888C17.608 47.6 18.3382 47.9848 18.924 48.5521C20.4495 50.0297 20.1037 53.0993 18.3464 53.8909C17.5226 54.2668 16.8087 54.1899 16.3714 53.2026Z" fill="#F7AA63"/>
<path d="M53.1576 52.7957L53.003 52.7694C51.5101 52.224 51.8701 51.151 52.344 50.0494C53.0111 49.6097 53.78 49.3062 54.2152 48.5256L54.7929 49.0006C55.5109 49.9549 55.4682 50.9113 54.7929 51.859C54.7283 51.9226 54.6672 51.9901 54.6098 52.0613C54.2417 52.5759 53.8613 53.0596 53.1576 52.7957Z" fill="#E29063"/>
<path d="M53.1576 52.7958L54.6119 52.068L54.2051 53.1674L54.0403 54.2162C53.7556 53.7303 53.4525 53.262 53.1576 52.7958Z" fill="#41423F"/>
<path d="M54.7949 51.8613C55.0702 50.9317 55.0702 49.9324 54.7949 49.0028C55.5129 49.1655 55.4946 49.8603 55.6655 50.4188C55.456 50.9532 55.5231 51.6964 54.7949 51.8613Z" fill="#364D4D"/>
<path d="M38.9687 58.4578C39.7945 58.715 39.7111 59.4714 39.7009 60.1333C39.6907 60.7951 39.7334 61.3558 40.4982 61.4306C40.0202 62.0243 39.3999 61.8395 38.806 61.7934C39.1639 60.6984 39.3836 59.5968 38.9687 58.4578Z" fill="#4D4F46"/>
<path d="M14.1401 32.4039C11.9149 30.8494 10.479 28.5912 9.3908 26.0538C8.78061 24.6421 8.68705 23.0238 7.13107 22.0673C6.26257 21.5352 6.47409 20.0686 6.96835 19.0153C7.4626 17.9621 8.23755 18.6569 8.96367 18.6174C12.3868 18.4283 15.8791 18.1446 18.2101 14.8024C18.7165 14.0768 19.1111 13.7272 19.9857 14.2021C21.5091 15.0289 23.177 15.2883 24.8672 15.2356C27.0395 15.1696 28.0158 16.4163 28.2883 18.6328C29.0267 24.6091 27.1168 28.5274 21.6963 32.0103C21.0312 32.6458 20.7342 33.6485 19.9084 34.1344C19.5884 34.2994 19.2443 34.4028 18.8914 34.4401C18.1756 34.4465 17.4624 34.3458 16.7721 34.141C15.7327 33.8508 14.7279 33.4946 14.1401 32.4039Z" fill="#F8AA64"/>
<path d="M25.1703 44.702L25.6015 45.023C25.6015 46.3071 25.331 47.1801 23.9194 46.3269C22.937 45.3463 23.596 43.7037 22.6644 42.7033C21.1308 41.1641 18.5965 41.1355 16.8615 42.6681C16.2351 43.3057 16.2107 44.1567 16.1273 44.9944C16.0439 45.8322 15.7205 46.4721 14.7686 46.2588C14.0547 43.983 14.376 41.6764 14.5957 39.3764C14.7524 39.1784 14.9475 39.0202 15.1673 38.913C15.387 38.8058 15.6259 38.7524 15.8669 38.7564C16.8514 38.9037 17.8358 39.1742 18.8304 38.8048C19.6318 38.5607 20.0508 37.8373 20.5491 37.2062C21.2569 36.7664 21.9363 36.2321 22.8271 36.5466L26.8951 38.5387C28.4022 39.8228 26.354 39.7261 26.2849 40.3945C25.9533 40.7385 25.6873 41.1493 25.5018 41.6039C25.4225 41.782 25.3472 41.9601 25.276 42.1426C25.2069 42.9913 24.9282 43.8335 25.1703 44.702Z" fill="#E51762"/>
<path d="M22.8272 36.5421C21.8407 36.4828 21.861 37.6262 21.2834 38.0549C19.5199 36.9181 20.3905 34.8644 19.8596 33.2967C20.2074 32.4172 20.9193 32.1621 21.6902 32.0104C21.9363 33.5605 21.0474 35.4383 22.8272 36.5421Z" fill="#664B35"/>
<path d="M15.1896 39.4445C14.755 40.5081 14.5305 41.6581 14.5305 42.8208C14.5305 43.9836 14.755 45.1335 15.1896 46.1971C15.2177 46.2333 15.2365 46.2769 15.2442 46.3235C15.2519 46.3701 15.2481 46.418 15.2333 46.4625C15.2184 46.507 15.1931 46.5465 15.1597 46.5771C15.1264 46.6077 15.0862 46.6283 15.0432 46.6369L15.0818 46.5995C13.8899 46.5467 14.2458 45.5419 14.2316 44.8624C14.1889 42.9143 14.2316 40.9617 14.2316 39.0136C14.3266 38.8853 14.4615 38.7987 14.6112 38.7699C14.7609 38.7412 14.9151 38.7723 15.0452 38.8574C15.1145 38.9332 15.1643 39.0273 15.1896 39.1302C15.2149 39.2332 15.2149 39.3416 15.1896 39.4445Z" fill="#CA1859"/>
<path d="M14.1401 32.4039L16.8046 33.3516C16.8716 33.4319 16.9177 33.53 16.9381 33.6359C16.9585 33.7418 16.9524 33.8516 16.9205 33.9541C15.6818 34.8094 15.7937 36.5663 14.8418 37.6195C14.7521 37.6661 14.6526 37.6864 14.5534 37.6783C14.4541 37.6702 14.3586 37.634 14.2764 37.5734C13.9326 35.8649 14.1462 34.1278 14.1401 32.4039Z" fill="#705238"/>
<path d="M25.9025 40.4297C26.0571 39.6887 27.4524 39.7129 26.8951 38.5343C27.428 38.5739 27.7087 38.8993 27.7941 39.4556C27.3548 39.7766 26.9161 40.0984 26.4781 40.4209C26.445 40.4693 26.4019 40.5087 26.3524 40.5362C26.3028 40.5637 26.248 40.5784 26.1923 40.5793C26.1366 40.5801 26.0815 40.567 26.0312 40.5411C25.981 40.5152 25.9369 40.477 25.9025 40.4297Z" fill="#631C36"/>
<path d="M14.2764 37.5734L14.5754 37.5997C15.2974 37.9098 15.5089 38.4045 15.0594 39.1389L14.2458 39.0048C14.2526 38.524 14.2628 38.0468 14.2764 37.5734Z" fill="#6A3338"/>
<path d="M58.9666 29.9786C59.7008 29.8247 59.8432 30.3172 59.8452 30.9417C59.8452 34.4114 59.8452 37.8812 59.8452 41.3509C59.8452 41.9908 59.6703 42.4503 58.9564 42.3162C57.9801 41.0233 56.481 40.7924 55.1976 40.1174C54.3474 39.6644 54.0627 40.4164 53.5928 40.8166C52.4782 39.9217 52.8525 38.8377 53.2532 37.7382C53.3733 37.488 53.5135 37.2496 53.6721 37.0258C56.2288 35.3723 58.096 33.1141 58.9666 29.9786Z" fill="#38130E"/>
<path d="M53.6152 37.6987C53.6071 38.7337 53.5996 39.7708 53.5928 40.8101L53.2572 41.5709C52.2524 43.0771 50.8795 42.5559 49.5635 42.3536C49.3235 42.0414 49.0828 41.7299 48.8415 41.4191C48.6116 40.0999 48.3859 38.7806 48.9696 37.5052C50.5012 37.989 52.0612 37.7581 53.6152 37.6987Z" fill="#F1A661"/>
<path d="M48.929 52.8771C48.5222 52.5495 48.0991 52.2461 47.5499 52.3054L47.5784 52.3164C47.2204 51.1687 46.9031 50.0231 47.7025 48.9237L47.7492 48.9501C48.5344 48.4619 48.634 49.2183 48.8903 49.6889C49.6022 50.1814 50.4605 50.5024 50.3426 51.7447C50.2449 52.7672 49.4842 52.6265 48.929 52.8771Z" fill="#D28960"/>
<path d="M54.2051 48.3608C53.5684 44.9064 51.1195 45.6606 48.9717 45.7222C48.7724 45.9787 48.573 45.9787 48.3737 45.7222C49.9683 44.5568 51.7847 45.0251 53.4037 45.311C54.8519 45.5661 53.8756 47.3317 54.2051 48.3608Z" fill="#324A4D"/>
<path d="M47.7025 48.9237C47.1757 50.0341 47.4462 51.1797 47.5784 52.3165C46.9805 52.0966 47.1594 50.9246 46.2686 51.0588L46.2848 51.1071C46.7323 50.3617 46.7282 49.2777 47.7025 48.9237Z" fill="#283B3E"/>
<path d="M49.3093 37.591C48.1174 38.719 49.0144 40.1438 48.8415 41.4191C48.3005 41.0915 48.3269 40.5396 48.329 39.9767L48.39 36.6477L49.3093 37.1073C49.4578 37.215 49.5127 37.3271 49.4578 37.4283C49.4029 37.5294 49.3602 37.591 49.3093 37.591Z" fill="#6F5138"/>
<path d="M48.3737 45.7222H48.9717C48.9432 47.0415 48.9161 48.3607 48.8903 49.68L47.7493 48.9434C48.2476 47.9408 48.2435 46.8172 48.3737 45.7222Z" fill="#585656"/>
<path d="M49.5635 42.3536C50.8165 42.2063 52.1548 42.5427 53.2572 41.5708C52.3318 43.5366 50.9609 43.0044 49.5635 42.3536Z" fill="#4C564C"/>
<path d="M40.4758 54.6978C40.2582 55.5003 39.9124 56.0698 39.0134 55.6388C39.3572 55.0627 39.884 54.8209 40.4758 54.6978Z" fill="#307981"/>
<path d="M49.3093 37.591V37.1072C50.7758 37.8043 52.226 37.547 53.6722 37.0259C53.6539 37.2458 53.6335 37.4656 53.6152 37.6987C52.1691 38.1847 50.725 38.5387 49.3093 37.591Z" fill="#855F3F"/>
<path d="M24.2916 46.0916C25.4225 46.7314 25.1052 45.3022 25.6015 45.0229C26.161 45.9624 26.4576 47.0565 26.4557 48.1738C25.6299 47.8462 25.0584 46.8304 24.015 47.1118C23.4882 46.5709 23.9356 46.3466 24.2916 46.0916Z" fill="#7C223E"/>
<path d="M25.1702 44.702C24.5377 43.7675 24.5885 42.8066 25.0746 41.8303C25.5831 42.6219 25.4611 43.4355 25.1519 44.249C25.1621 44.4051 25.1682 44.5525 25.1702 44.702Z" fill="#D4185C"/>
<path d="M25.1519 44.2578C25.1275 43.4486 25.1018 42.6424 25.0746 41.8391C25.1336 41.7159 25.1906 41.5906 25.2455 41.4653C25.6218 41.3443 25.8557 41.3883 25.6523 41.905C25.457 42.6812 25.817 43.5915 25.1519 44.2578Z" fill="#6C1C39"/>
<path d="M25.6462 41.8875L25.2394 41.4478L25.8964 40.4209H26.472L25.6462 41.8875Z" fill="#931A46"/>
<path d="M24.2916 46.0916C24.1953 46.4317 24.1004 46.7717 24.0068 47.1118C23.7241 47.5516 23.5085 48.2794 23.1485 48.3739C21.1674 48.8973 20.9295 50.5728 20.7403 52.3076C20.5776 53.5478 21.9891 53.7324 22.2231 53.7544C24.3607 53.9589 23.5899 55.3772 23.3926 56.5821H16.3815C15.9951 55.5245 16.0662 54.4625 16.3449 53.396L16.3734 53.1981C17.4412 53.5719 18.3911 53.2861 18.7145 52.1273C19.0582 50.9004 19.3633 49.4887 17.6568 48.8995C17.1341 48.7214 16.5524 48.4773 16.3246 47.8001C15.7022 45.8739 15.8649 43.9147 16.109 41.9534C17.126 40.854 18.4094 41.4894 19.5667 41.3795C20.9132 41.252 22.2759 41.4477 23.6346 41.2652C23.9357 41.1134 24.135 41.2102 24.2346 41.551L24.2916 46.0916Z" fill="#393436"/>
<path d="M23.3926 56.5821C23.6224 55.0693 22.9472 54.2514 21.6739 53.7764C21.1105 53.5565 19.9695 53.5895 20.7403 52.3076C21.5905 53.3455 22.6014 53.6929 23.8218 53.1498C23.7546 54.3041 24.0984 55.5201 23.3926 56.5821Z" fill="#383230"/>
<path d="M16.3449 53.4005L16.3815 56.5866C16.2436 56.5783 16.1071 56.5524 15.9747 56.5097C16.0479 55.4652 15.6818 54.3614 16.3449 53.4005Z" fill="#383230"/>
<path d="M52.344 50.045C52.3094 51.0235 52.2505 52.0086 53.001 52.765C52.4071 53.1564 51.8111 53.141 51.6321 52.3582C51.4369 51.5007 51.1338 50.4584 52.344 50.045Z" fill="#655048"/>
<path d="M16.3815 41.8545C16.3639 43.8393 16.3449 45.8249 16.3246 47.8111L15.0472 46.6325C15.1165 46.4949 15.1659 46.3466 15.1937 46.1928C16.2636 44.7108 15.1022 42.8154 15.9646 41.296L16.1883 41.3884C16.3022 41.5137 16.3708 41.6791 16.3815 41.8545Z" fill="#372E2D"/>
<path d="M15.0595 39.1433L14.5754 37.6041C14.551 37.1336 14.5571 36.6608 14.4981 36.1969C14.2479 34.2355 14.5673 32.9316 16.8127 33.765C17.484 33.1823 18.3891 33.8837 19.0501 33.2791L19.8637 33.301C20.7505 33.2175 21.4054 33.4066 21.3485 34.6203C21.2956 35.7681 21.3017 36.9181 21.2793 38.0681L19.461 40.0228C18.3138 40.2669 17.1687 40.346 16.0297 39.97C15.9583 39.7982 15.8377 39.6556 15.6858 39.5634C15.5338 39.4712 15.3585 39.4341 15.1856 39.4577C15.1682 39.3433 15.1248 39.2353 15.0595 39.1433Z" fill="#F3A762"/>
<path d="M19.0562 33.2747C18.446 34.218 17.604 33.8354 16.8188 33.7606C16.8188 33.6243 16.8188 33.488 16.8188 33.3516L19.0562 33.2747Z" fill="#815D3E"/>
<path d="M24.2305 41.562C24.0924 41.5268 23.9514 41.507 23.8095 41.5026C21.1857 41.6983 18.5599 41.617 15.934 41.551C15.9255 41.466 15.936 41.38 15.9645 41.3003C18.7368 40.7704 21.5071 40.335 24.2305 41.562Z" fill="#CA1859"/>
<path d="M16.0338 39.9569L19.465 40.0097C18.3138 40.6539 17.1687 40.6847 16.0338 39.9569Z" fill="#72253B"/>
<path d="M15.9341 41.5511C18.5579 41.2081 21.1837 41.2894 23.8096 41.5027C21.3688 42.2327 18.8548 41.6588 16.3815 41.8545L15.9341 41.5511Z" fill="#36262C"/>
</g>
<defs>
<clipPath id="clip0_121_970">
<rect width="66" height="65.7864" fill="white"/>
</clipPath>
</defs>
</svg>
