<svg width="37" height="40" viewBox="0 0 37 40" fill="none" xmlns="http://www.w3.org/2000/svg">
<path d="M18.5 11.6667V5H3.08333V35H33.9167V11.6667H18.5ZM9.25 31.6667H6.16666V28.3333H9.25V31.6667ZM9.25 25H6.16666V21.6667H9.25V25ZM9.25 18.3333H6.16666V15H9.25V18.3333ZM9.25 11.6667H6.16666V8.33333H9.25V11.6667ZM15.4167 31.6667H12.3333V28.3333H15.4167V31.6667ZM15.4167 25H12.3333V21.6667H15.4167V25ZM15.4167 18.3333H12.3333V15H15.4167V18.3333ZM15.4167 11.6667H12.3333V8.33333H15.4167V11.6667ZM30.8333 31.6667H18.5V28.3333V25V21.6667V18.3333V15H30.8333V31.6667ZM29.2917 18.3333H26.2083V21.6667H29.2917V18.3333ZM29.2917 25H26.2083V28.3333H29.2917V25Z" fill="#984986"/>
<path d="M20.0417 18.3333H23.125V21.6667H20.0417V18.3333Z" fill="#984986"/>
<path d="M20.0417 25H23.125V28.3333H20.0417V25Z" fill="#984986"/>
</svg>
