<svg width="61" height="95" viewBox="0 0 61 95" fill="none" xmlns="http://www.w3.org/2000/svg">
<g clip-path="url(#clip0_120_46438)">
<path d="M25.3147 59.5358C23.4175 60.2549 22.2792 62.4293 22.4689 64.465C22.6587 66.5008 24.0112 68.3145 25.7566 69.3492C27.502 70.384 29.5922 70.7086 31.6132 70.5892C33.4568 70.4843 35.316 70.0131 36.8504 68.975C38.3849 67.9368 39.5633 66.2832 39.7888 64.4312C40.0142 62.5792 39.1694 60.5717 37.5568 59.6586L25.3147 59.5358Z" fill="#FFD6B8"/>
<path d="M56.1958 82.2524C55.8967 78.1516 55.2851 74.1365 53.8109 70.9251C50.8157 64.3873 44.6823 59.9416 37.558 59.6631C37.558 59.6631 43.4659 68.8319 30.8621 69.0325C20.5841 69.1959 25.3191 59.5358 25.3191 59.5358C19.14 60.663 13.0066 64.1923 10.0114 69.7663C8.48806 72.6012 7.71134 77.4313 7.63434 82.2524H56.1958Z" fill="#F0A2A2"/>
<path d="M38.0445 63.7628C37.4564 66.0769 35.6117 67.9808 33.3764 68.7225C32.2538 69.1037 31.0491 69.1665 29.8935 68.904C28.745 68.6353 27.6784 68.0887 26.7855 67.3112C25.7676 66.4391 25.0199 65.2894 24.6317 63.9995C24.5011 63.5486 23.807 63.7414 23.9376 64.1922C24.6741 66.7318 26.7811 68.7518 29.2808 69.4901C31.8308 70.2465 34.5605 69.4687 36.4978 67.6719C37.5827 66.6751 38.3603 65.3837 38.7376 63.9522C38.8525 63.5024 38.1595 63.3085 38.0445 63.7628Z" fill="#2E2E2E"/>
<path d="M23.4878 59.4433C19.7348 60.557 16.0934 62.3008 13.1941 64.9959C10.4756 67.522 8.46351 70.8867 7.92115 74.6088C7.56627 77.0413 7.72363 79.5212 7.30737 81.9458C7.2837 82.0392 7.29659 82.1381 7.34336 82.2221C7.39013 82.3061 7.46719 82.3686 7.55846 82.3967C7.6511 82.4226 7.75015 82.4104 7.83386 82.3626C7.91756 82.3149 7.97907 82.2355 8.00485 82.1419C8.37312 80.0002 8.30617 77.827 8.51597 75.6729C8.68511 73.8032 9.20471 71.9831 10.0471 70.3096C11.7322 67.0024 14.511 64.4278 17.7038 62.6288C19.5992 61.5797 21.6047 60.7479 23.6831 60.1489C24.1217 60.0125 23.9331 59.3103 23.4878 59.4433Z" fill="#2E2E2E"/>
<path d="M55.8844 80.8987C55.8744 80.6191 55.861 80.335 55.8431 80.0611C55.7719 78.9425 55.6351 77.8291 55.4336 76.7269C55.038 74.5286 54.3515 72.394 53.3925 70.3807C52.4727 68.4509 51.2616 66.6773 49.8024 65.1234C48.4117 63.6512 46.7975 62.4127 45.0204 61.4543C43.2424 60.4948 41.3076 59.867 39.3089 59.6012C39.0589 59.5696 38.8101 59.5437 38.559 59.5245C38.4639 59.5251 38.3728 59.5636 38.3056 59.6315C38.2383 59.6994 38.2002 59.7914 38.1997 59.8875C38.2014 59.9832 38.2398 60.0745 38.3068 60.1422C38.3738 60.2099 38.4642 60.2487 38.559 60.2505C40.4143 60.4067 42.2265 60.8993 43.9089 61.7046C45.6223 62.5215 47.1974 63.6065 48.5759 64.9194C49.9979 66.2773 51.2069 67.8459 52.1615 69.5713C53.166 71.3938 53.922 73.345 54.4091 75.3719C54.659 76.3864 54.8479 77.4151 54.9749 78.4526C55.0389 78.9786 55.088 79.5047 55.1222 80.0307C55.1705 80.553 55.1899 81.0776 55.1802 81.602C55.1791 81.6677 55.1651 81.7324 55.139 81.7925C55.1396 81.7959 55.1396 81.7993 55.139 81.8027C55.0717 81.7932 55.0031 81.8043 54.9421 81.8344C54.8811 81.8645 54.8303 81.9124 54.7963 81.9718C54.7071 82.1262 54.7461 82.3888 54.9247 82.4688C55.4827 82.7213 55.8587 82.1859 55.9011 81.6685C55.9101 81.4118 55.9045 81.1547 55.8844 80.8987Z" fill="#2E2E2E"/>
<path d="M57.1812 84.3422C58.1757 85.9174 58.8972 87.6522 59.3149 89.4722L61.0011 88.2255C60.5458 86.3779 59.6888 84.6559 58.4924 83.1846C59.0457 82.3898 59.2794 81.4123 59.1464 80.45C59.041 79.6089 58.6804 78.8214 58.1141 78.1956C59.4041 76.5454 59.5537 74.0249 58.0761 72.4299C58.3478 72.023 58.5613 71.5794 58.71 71.1122C59.4321 68.8183 58.1018 65.9676 55.8788 65.1707C56.2455 64.2806 56.3681 63.3072 56.2337 62.3527C56.1014 61.3151 55.665 60.3412 54.9804 59.5561C55.0845 58.9984 55.0977 58.4273 55.0195 57.8653C54.9102 57.1189 54.6496 56.4033 54.254 55.7633C53.8584 55.1232 53.3364 54.5725 52.7206 54.1455C52.7726 53.8962 52.8025 53.6427 52.8099 53.388C54.0718 51.9311 55.0027 50.2129 55.5373 48.3539C56.391 45.3792 56.2203 42.2433 55.7058 39.2291C55.3297 37.0345 54.6635 34.8612 53.4203 33.0295C53.3706 32.8784 53.3087 32.7318 53.2351 32.591C52.0867 30.4099 49.5066 29.1519 47.0973 29.3368C44.5305 29.534 42.2986 30.9712 40.6827 32.9551C37.5993 36.7493 35.7278 41.904 36.1284 46.8513C36.3081 49.0629 36.8583 51.3703 38.1729 53.1919C39.4205 54.9187 41.0487 56.0956 42.9972 56.64C43.2675 56.8701 43.5569 57.0764 43.8621 57.2566C43.5622 57.9645 43.4341 58.7345 43.4885 59.5025C43.5428 60.2705 43.7781 61.0142 44.1745 61.6718C44.376 61.9926 44.613 62.2891 44.8809 62.5556C44.7827 63.9387 45.4791 65.3364 46.4991 66.2303C46.9216 66.6026 47.3986 66.9068 47.913 67.132C47.2971 67.9961 46.9476 69.0247 46.9087 70.0887C46.8907 70.7577 47.0179 71.4226 47.2812 72.0368C47.5445 72.6509 47.9377 73.1995 48.4331 73.6439C47.9777 75.6188 49.0814 77.7019 50.6985 78.9159C51.0997 79.2162 51.5383 79.4618 52.003 79.6463C51.6783 80.8186 51.6995 82.0754 52.3434 83.1553C52.7679 83.8679 53.4411 84.3943 54.2305 84.6308C54.4571 86.755 54.1636 88.9029 53.3757 90.8857C54.7011 91.2002 56.076 91.2385 57.4166 90.9984C57.5875 88.8129 57.3852 86.614 56.8185 84.4978C56.8441 84.4877 56.8709 84.4798 56.8955 84.4685C56.9925 84.4369 57.0885 84.3918 57.1812 84.3422Z" fill="black"/>
<path d="M44.6276 56.8597C43.5298 56.5525 42.5 56.0368 41.5933 55.3403C41.4382 55.2275 41.1916 55.3155 41.1012 55.471C41.055 55.5547 41.0427 55.6532 41.0668 55.7459C41.091 55.8386 41.1496 55.9182 41.2306 55.9681C42.1903 56.6985 43.2782 57.2389 44.4368 57.5609C44.8832 57.686 45.074 56.9849 44.6276 56.8597Z" fill="#2E2E2E"/>
<path d="M56.1076 46.432C56.0152 46.4075 55.9169 46.4202 55.8336 46.4676C55.7503 46.5149 55.6885 46.5931 55.6612 46.6856C54.7411 49.0604 53.5389 51.3136 52.0812 53.3958C52.0341 53.4793 52.0214 53.5781 52.0456 53.671C52.0697 53.764 52.129 53.8436 52.2107 53.8929C52.2935 53.9396 52.391 53.952 52.4828 53.9276C52.5745 53.9033 52.6534 53.844 52.7028 53.7622C54.1918 51.6254 55.4183 49.3139 56.3554 46.8783C56.4268 46.6912 56.2795 46.4759 56.1076 46.432Z" fill="#2E2E2E"/>
<path d="M46.2871 62.6367C44.8363 62.3109 43.7739 60.7306 44.0763 59.2438C44.1006 59.1505 44.0879 59.0512 44.0411 58.9671C43.9942 58.8829 43.9168 58.8205 43.8252 58.7929C43.7327 58.7673 43.634 58.7795 43.5504 58.827C43.4668 58.8745 43.4051 58.9534 43.3788 59.0466C43.0005 60.9042 44.2426 62.9185 46.0929 63.3299C46.5493 63.4381 46.7424 62.7381 46.2871 62.6367Z" fill="#2E2E2E"/>
<path d="M53.7373 54.2368C53.4226 53.8986 52.9148 54.407 53.2284 54.7508C54.4749 56.1035 54.7205 58.2722 53.8232 59.8841C53.6 60.2922 54.2172 60.6596 54.4448 60.2504C55.5039 58.3488 55.2048 55.8363 53.7373 54.2368Z" fill="#2E2E2E"/>
<path d="M50.5434 67.1861C48.4431 67.2492 46.4042 65.8075 45.7715 63.7774C45.6331 63.3266 44.9378 63.5227 45.0785 63.9702C45.6364 65.7816 47.1631 67.2075 48.9654 67.717C49.4787 67.8621 50.0106 67.9282 50.5434 67.9132C51.0054 67.8996 51.0065 67.1726 50.5434 67.1861Z" fill="#2E2E2E"/>
<path d="M55.8844 60.982C55.8358 60.8993 55.7569 60.8392 55.6648 60.8148C55.5728 60.7903 55.4749 60.8034 55.3923 60.8512C55.3115 60.9013 55.253 60.981 55.2291 61.0737C55.2052 61.1663 55.2176 61.2647 55.2639 61.3483C55.5749 62.0498 55.7078 62.8186 55.6505 63.585C55.5932 64.3514 55.3476 65.0913 54.9358 65.7377C54.6836 66.1322 55.3063 66.4963 55.5574 66.1052C56.0319 65.347 56.3104 64.4807 56.3675 63.5857C56.4247 62.6906 56.2586 61.7954 55.8844 60.982Z" fill="#2E2E2E"/>
<path d="M51.2118 73.8728C50.3107 73.832 49.4537 73.4669 48.7958 72.8437C48.1102 72.1886 47.7006 71.2921 47.6519 70.3401C47.6226 69.785 47.7112 69.23 47.9119 68.7124C47.9834 68.5287 47.8349 68.3134 47.6608 68.2616C47.5684 68.2368 47.47 68.2494 47.3866 68.2968C47.3032 68.3441 47.2415 68.4225 47.2145 68.5152C46.8115 69.5849 46.825 70.7692 47.2524 71.8292C47.6703 72.8518 48.45 73.6807 49.4397 74.1546C49.9934 74.4205 50.5947 74.5705 51.2074 74.5954C51.675 74.6179 51.6738 73.8908 51.2118 73.8728Z" fill="#2E2E2E"/>
<path d="M58.5817 67.9763C58.2946 67.3923 57.9707 66.8276 57.6119 66.2855C57.3619 65.8932 56.7392 66.2573 56.9903 66.6519C57.6432 67.6799 58.4031 68.8263 58.411 70.0944C58.4165 70.9961 58.0003 72.0411 57.0986 72.3578C57.0068 72.3851 56.9292 72.4475 56.8823 72.5317C56.8355 72.6159 56.8229 72.7153 56.8475 72.8087C56.8735 72.9021 56.9351 72.9813 57.0187 73.029C57.1023 73.0767 57.2012 73.0891 57.2939 73.0635C58.1866 72.7478 58.7893 71.9475 59.0203 71.0345C59.2803 69.9907 59.0281 68.9345 58.5817 67.9763Z" fill="#2E2E2E"/>
<path d="M58.3496 73.0871C58.2302 72.9327 57.9668 72.9597 57.8418 73.0871C57.7761 73.1562 57.7393 73.2483 57.7393 73.3441C57.7393 73.4399 57.7761 73.532 57.8418 73.6011C58.1155 73.9582 58.3126 74.3689 58.4208 74.807C58.529 75.2452 58.5457 75.7013 58.4701 76.1463C58.314 77.0015 57.8294 77.7597 57.122 78.2553C57.0417 78.3058 56.9836 78.3855 56.9597 78.478C56.9358 78.5705 56.948 78.6687 56.9937 78.7524C57.0425 78.8349 57.1214 78.8948 57.2134 78.9192C57.3053 78.9436 57.4032 78.9307 57.4858 78.8832C57.9411 78.5776 58.3279 78.179 58.6215 77.7132C58.915 77.2474 59.1086 76.7246 59.19 76.1786C59.2714 75.6326 59.2386 75.0754 59.0939 74.543C58.9491 74.0105 58.6956 73.5146 58.3496 73.0871Z" fill="#2E2E2E"/>
<path d="M53.109 79.3115C52.1145 79.0172 51.2122 78.4681 50.4899 77.7176C49.7675 76.967 49.2497 76.0405 48.9866 75.0281C48.875 74.5772 48.1775 74.7677 48.2924 75.2208C48.5236 76.1006 48.9267 76.9248 49.4782 77.6448C50.0296 78.3647 50.7181 78.9659 51.5031 79.4129C51.95 79.6662 52.425 79.8652 52.9181 80.0059C53.3634 80.1355 53.5542 79.4389 53.109 79.3115Z" fill="#2E2E2E"/>
<path d="M54.7684 84.3491C54.7602 84.1988 54.7502 84.0523 54.7383 83.9095C54.736 83.8139 54.6974 83.7229 54.6305 83.6554C54.5636 83.5878 54.4735 83.5488 54.3789 83.5465C54.2969 83.5485 54.2178 83.5775 54.1537 83.6292C54.0896 83.6809 54.0441 83.7525 54.0241 83.8328C53.5769 83.4792 53.2129 83.0298 52.9583 82.517C52.7038 82.0041 52.565 81.4407 52.5521 80.8671C52.5521 80.3993 51.8267 80.3982 51.8334 80.8671C51.8495 81.6511 52.0628 82.4181 52.4532 83.0958C52.8437 83.7736 53.3985 84.3399 54.0654 84.7414C54.1332 86.7207 53.8664 88.6972 53.2764 90.5859C53.1369 91.0368 53.8344 91.2239 53.9705 90.7787C54.5867 88.8018 54.8608 86.7323 54.7807 84.6613C54.8046 84.6124 54.816 84.5582 54.8139 84.5036C54.8117 84.4491 54.7961 84.396 54.7684 84.3491Z" fill="#2E2E2E"/>
<path d="M59.1397 87.6304C58.6891 86.2914 58.0634 85.0192 57.2794 83.8475C57.2794 83.8328 57.2794 83.8182 57.2794 83.8035C57.2712 83.7543 57.251 83.7078 57.2206 83.6685C57.1902 83.6291 57.1506 83.598 57.1053 83.5781C57.054 83.4994 56.9745 83.4438 56.8834 83.4233C56.7924 83.4027 56.697 83.4187 56.6175 83.4679C56.5379 83.5171 56.4804 83.5956 56.4571 83.6868C56.4338 83.7781 56.4465 83.8749 56.4926 83.9568C56.5294 84.0087 56.564 84.0628 56.6042 84.1146C56.8527 86.0661 56.8222 88.0435 56.5138 89.9862C56.4899 90.0796 56.5026 90.1787 56.5494 90.2627C56.5963 90.3468 56.6735 90.4093 56.7649 90.4371C56.9356 90.4856 57.1756 90.3785 57.2113 90.1835C57.4582 88.6364 57.5376 87.0667 57.4479 85.5022C57.85 86.2458 58.1886 87.0226 58.4601 87.8242C58.5951 88.2638 59.2903 88.0756 59.1397 87.6304Z" fill="#2E2E2E"/>
<path d="M60.2724 86.2754C59.9108 85.1381 59.4003 84.0547 58.7547 83.0539C59.1047 82.4629 59.3179 81.7997 59.3784 81.1138C59.4389 80.4278 59.3451 79.737 59.104 79.0928C59.0762 79.0006 59.0143 78.9228 58.9311 78.8756C58.848 78.8283 58.75 78.8153 58.6576 78.8392C58.4846 78.8877 58.3351 79.103 58.4065 79.2901C58.5989 79.7884 58.6876 80.3215 58.6671 80.856C58.6466 81.3905 58.5172 81.9149 58.2871 82.3967C58.2325 82.3382 58.1599 82.3 58.0812 82.2881C58.0025 82.2762 57.9221 82.2915 57.8529 82.3313C57.6989 82.4226 57.6086 82.6695 57.7235 82.8284C58.531 83.9339 59.1558 85.1642 59.5738 86.4716C59.7189 86.9112 60.4141 86.7218 60.2724 86.2754Z" fill="#2E2E2E"/>
<path d="M13.905 33.185C11.4945 33.0002 8.91437 34.2581 7.76716 36.4393C7.69358 36.58 7.6316 36.7267 7.58189 36.8778C6.3387 38.7061 5.67247 40.8793 5.2975 43.0774C4.78192 46.0927 4.61118 49.2286 5.4649 52.2078C5.99946 54.0667 6.93038 55.785 8.19232 57.2419C8.19972 57.4966 8.2296 57.7501 8.2816 57.9994C7.66577 58.4264 7.14376 58.9771 6.74821 59.6172C6.35265 60.2572 6.09207 60.9728 5.98272 61.7192C5.90452 62.2811 5.9177 62.8523 6.02177 63.41C5.33684 64.1948 4.90034 65.1689 4.76853 66.2066C4.6338 67.1611 4.75639 68.1346 5.1234 69.0246C2.90039 69.8227 1.57017 72.6734 2.2922 74.9661C2.44073 75.4338 2.65414 75.8778 2.92607 76.2849C1.44852 77.8844 1.59808 80.4004 2.88814 82.0506C2.32184 82.6764 1.96124 83.4639 1.85587 84.305C1.72278 85.2673 1.95651 86.2448 2.50981 87.0396C1.31342 88.5109 0.456441 90.2329 0.00111389 92.0805L1.68736 93.3272C2.10501 91.5072 2.82656 89.7724 3.82108 88.1973C3.9137 88.2469 4.00968 88.2919 4.10789 88.3337C4.13244 88.3449 4.15922 88.3528 4.18488 88.363C3.61815 90.4792 3.41584 92.6781 3.58674 94.8636C4.92731 95.1037 6.30225 95.0653 7.62766 94.7509C6.83979 92.7681 6.54623 90.6202 6.77281 88.496C7.56221 88.2594 8.23541 87.7331 8.65993 87.0205C9.30385 85.9406 9.32952 84.6838 8.99472 83.5115C9.45946 83.3269 9.89809 83.0813 10.2993 82.781C11.9163 81.5693 13.02 79.4839 12.5658 77.5091C13.0608 77.0644 13.4537 76.5158 13.7168 75.9017C13.9799 75.2876 14.107 74.6228 14.0891 73.9539C14.0501 72.8899 13.7007 71.8612 13.0847 70.9972C13.5992 70.772 14.0761 70.4678 14.4987 70.0954C15.5187 69.2016 16.215 67.8027 16.1168 66.4196C16.385 66.1537 16.622 65.8576 16.8232 65.537C17.2197 64.8794 17.4549 64.1356 17.5093 63.3676C17.5636 62.5996 17.4356 61.8296 17.1357 61.1217C17.4409 60.9415 17.7303 60.7352 18.0006 60.5051C19.9491 59.9607 21.5784 58.7839 22.8249 57.057C24.1395 55.2355 24.6897 52.9281 24.8694 50.7165C25.27 45.7692 23.3985 40.6144 20.3151 36.8191C18.707 34.8217 16.4717 33.3823 13.905 33.185Z" fill="black"/>
<path d="M10.537 59.1898C7.59974 56.622 6.03963 52.8334 5.56646 48.9998C5.42331 47.8031 5.36215 46.5979 5.38343 45.3927C5.39012 44.9249 4.67145 44.9249 4.66475 45.3927C4.6056 49.5544 5.43142 53.8603 7.87316 57.296C8.49588 58.1795 9.21916 58.9861 10.0281 59.6992C10.0969 59.7649 10.1879 59.8014 10.2826 59.8014C10.3772 59.8014 10.4682 59.7649 10.537 59.6992C10.6022 59.6308 10.6386 59.5395 10.6386 59.4445C10.6386 59.3495 10.6022 59.2582 10.537 59.1898Z" fill="#2E2E2E"/>
<path d="M22.4566 57.5665C20.881 58.9935 18.9727 59.9933 16.9103 60.4724C16.4639 60.5773 16.6502 61.2784 17.1022 61.1736C19.2843 60.6597 21.3017 59.5951 22.9655 58.0794C23.3104 57.766 22.8004 57.2532 22.4566 57.5665Z" fill="#2E2E2E"/>
<path d="M7.77608 58.1144C6.76515 58.7689 6.02152 59.7693 5.6814 60.9324C5.35175 62.1131 5.47117 63.3756 6.01619 64.4719C6.31687 65.0888 6.7441 65.634 7.26945 66.0713C7.33804 66.1369 7.42888 66.1734 7.52332 66.1734C7.61776 66.1734 7.7086 66.1369 7.77719 66.0713C7.90441 65.9428 7.92896 65.6825 7.77719 65.5573C6.96643 64.8839 6.4268 63.9348 6.25949 62.8881C6.14799 62.0874 6.26606 61.2712 6.59973 60.5362C6.9334 59.8013 7.46867 59.1783 8.14212 58.7411C8.52824 58.4932 8.16778 57.8619 7.77608 58.1144Z" fill="#2E2E2E"/>
<path d="M17.2651 62.9388C17.1705 62.9409 17.0802 62.9797 17.0133 63.0474C16.9463 63.115 16.9078 63.2062 16.9058 63.3018C16.831 64.0852 16.6514 64.9543 16.1023 65.5483C15.8704 65.8037 15.5748 65.9913 15.2464 66.0916C14.9409 66.1951 14.6084 66.1814 14.3123 66.0533C14.2293 66.0072 14.132 65.9951 14.0404 66.0194C13.9488 66.0437 13.87 66.1027 13.8202 66.184C13.7727 66.2673 13.7596 66.3661 13.7836 66.4591C13.8076 66.5521 13.8668 66.6318 13.9485 66.6811C14.8413 67.1016 15.8691 66.8063 16.5476 66.1288C17.2875 65.3905 17.5285 64.3107 17.6245 63.3018C17.6239 63.2057 17.5859 63.1138 17.5186 63.0458C17.4513 62.9779 17.3603 62.9394 17.2651 62.9388Z" fill="#2E2E2E"/>
<path d="M15.3279 67.5896C15.3183 68.0212 15.22 68.4461 15.0393 68.8373C14.8585 69.2285 14.5991 69.5775 14.2777 69.8621C13.9497 70.1443 13.5661 70.353 13.1523 70.4743C12.7385 70.5955 12.3039 70.6266 11.8773 70.5655C11.7848 70.5415 11.6869 70.5546 11.6037 70.6018C11.5206 70.6491 11.4586 70.7269 11.4309 70.8191C11.384 70.9904 11.4889 71.2373 11.682 71.27C12.2222 71.3566 12.7746 71.3253 13.3019 71.1781C13.8292 71.0309 14.3191 70.7713 14.7386 70.4167C15.1394 70.0656 15.4626 69.6332 15.6871 69.1477C15.9117 68.6622 16.0326 68.1344 16.0421 67.5986C16.0555 67.1218 15.3368 67.1218 15.3279 67.5896Z" fill="#2E2E2E"/>
<path d="M6.20479 69.5048C5.11783 68.4745 4.8656 66.707 5.62558 65.4119C5.86328 65.0083 5.2417 64.6431 5.00512 65.0444C4.08333 66.6112 4.37905 68.7698 5.6959 70.0188C6.03404 70.3378 6.54293 69.8249 6.20479 69.5048Z" fill="#2E2E2E"/>
<path d="M4.09112 76.6761C3.36016 76.2478 2.91267 75.4892 2.73076 74.6697C2.52543 73.7386 2.71514 72.7534 3.09681 71.8934C3.34234 71.3539 3.64147 70.8411 3.98958 70.3626C4.03731 70.2794 4.05061 70.1805 4.02658 70.0875C4.00255 69.9944 3.94314 69.9146 3.86126 69.8655C3.77846 69.8191 3.68111 69.8066 3.58946 69.8308C3.4978 69.8549 3.41888 69.9138 3.3691 69.9952C2.70733 70.9217 2.1594 71.9802 1.99089 73.1209C1.838 74.1512 1.99088 75.2277 2.54105 76.1238C2.83438 76.6097 3.24183 77.0151 3.72732 77.304C4.12907 77.5429 4.49176 76.9117 4.09112 76.6761Z" fill="#2E2E2E"/>
<path d="M14.0858 72.4153C14.0824 72.3199 14.0434 72.2294 13.9764 72.162C13.9095 72.0946 13.8198 72.0555 13.7253 72.0524C13.5501 72.0524 13.3414 72.2192 13.366 72.4153C13.5178 73.6057 13.5211 74.9177 12.9018 75.9841C12.4107 76.8306 11.4264 77.5419 10.4143 77.384C10.3217 77.3608 10.2238 77.3742 10.1408 77.4216C10.0578 77.469 9.99587 77.5467 9.96786 77.6388C9.92099 77.8101 10.0259 78.0547 10.219 78.0897C11.2155 78.2441 12.1775 77.8642 12.8973 77.1597C13.6785 76.3977 14.0378 75.3427 14.1382 74.273C14.1898 73.6537 14.1722 73.0306 14.0858 72.4153Z" fill="#2E2E2E"/>
<path d="M3.76862 81.9751C2.64596 81.0474 2.20627 79.3532 2.8234 78.0073C2.86875 77.9234 2.8806 77.8252 2.85653 77.7328C2.83246 77.6403 2.7743 77.5607 2.69396 77.5102C2.61148 77.4623 2.51367 77.449 2.42161 77.4733C2.32955 77.4975 2.2506 77.5573 2.2018 77.6398C1.45521 79.2653 1.867 81.3427 3.26085 82.4868C3.32945 82.5524 3.42031 82.5889 3.51475 82.5889C3.60919 82.5889 3.70003 82.5524 3.76862 82.4868C3.90031 82.3606 3.92486 82.0991 3.76862 81.9751Z" fill="#2E2E2E"/>
<path d="M12.1908 78.8134C12.0958 78.8151 12.0051 78.854 11.9379 78.9219C11.8706 78.9898 11.8321 79.0814 11.8304 79.1774C11.6663 81.15 9.93325 82.8814 7.98253 83.0347C7.88785 83.0367 7.79761 83.0756 7.73065 83.1433C7.66369 83.2109 7.62519 83.3021 7.62319 83.3977C7.62378 83.4938 7.66183 83.5857 7.7291 83.6537C7.79636 83.7216 7.88741 83.7601 7.98253 83.7607C9.79375 83.6198 11.442 82.3967 12.1641 80.7172C12.3756 80.2292 12.5061 79.7094 12.5502 79.1786C12.5499 79.0822 12.512 78.9898 12.4447 78.9214C12.3775 78.8531 12.2863 78.8142 12.1908 78.8134Z" fill="#2E2E2E"/>
<path d="M2.89928 87.2426C2.53718 86.657 2.31988 85.992 2.26569 85.3038C2.2115 84.6156 2.32201 83.9243 2.58792 83.2883C2.6331 83.2045 2.64498 83.1065 2.62114 83.0141C2.5973 82.9218 2.53954 82.8421 2.4596 82.7912C2.30671 82.701 2.04558 82.7405 1.96747 82.9208C1.63954 83.6692 1.49643 84.4869 1.55047 85.3035C1.60451 86.1201 1.85406 86.9112 2.27768 87.6089C2.52208 88.0046 3.1448 87.6405 2.89928 87.2426Z" fill="#2E2E2E"/>
<path d="M9.36409 85.1989C9.27164 85.1741 9.17327 85.1868 9.0899 85.2342C9.00653 85.2815 8.94474 85.3599 8.91771 85.4526C8.62755 86.2044 8.27379 86.9641 7.69014 87.5356C7.1846 88.0338 6.4492 88.3855 5.73163 88.2457C5.6392 88.2215 5.54107 88.2344 5.45784 88.2817C5.37462 88.329 5.31277 88.407 5.28524 88.4994C5.2601 88.5928 5.27235 88.6924 5.31933 88.7768C5.36631 88.8611 5.44426 88.9234 5.53634 88.9502C6.48045 89.134 7.41338 88.7733 8.11198 88.1319C8.83401 87.4691 9.25474 86.5538 9.60293 85.6521C9.68328 85.4627 9.53818 85.2474 9.36409 85.1989Z" fill="#2E2E2E"/>
<path d="M3.91037 87.9718C3.36466 90.0831 2.81226 92.3781 3.55215 94.5096C3.57967 94.602 3.64152 94.68 3.72475 94.7273C3.80797 94.7746 3.9061 94.7875 3.99854 94.7633C4.09095 94.737 4.16927 94.6747 4.21634 94.5902C4.2634 94.5057 4.27538 94.4058 4.24963 94.3124C3.55215 92.2981 4.09339 90.1417 4.60673 88.1567C4.72056 87.7126 4.02755 87.5198 3.91037 87.9718Z" fill="#2E2E2E"/>
<path d="M2.89927 88.7914C2.21979 90.1356 1.68875 91.5513 1.31572 93.0128C1.20412 93.4636 1.89379 93.6598 2.00985 93.2055C2.3643 91.8045 2.87105 90.4474 3.52088 89.1589C3.73068 88.7429 3.11019 88.3743 2.89927 88.7914Z" fill="#2E2E2E"/>
<path d="M37.0837 51.4706H25.2142V64.084H37.0837V51.4706Z" fill="#FFD6B8"/>
<path d="M52.7352 32.5076C52.7352 46.352 47.7367 57.5756 30.2406 57.5756C12.7444 57.5756 7.74597 46.352 7.74597 32.5076C7.74597 26.9843 7.86651 21.2998 10.7747 17.1584C15.1605 10.9137 22.2558 6.85571 30.2629 6.85571C37.866 6.85571 44.6477 10.5135 49.067 16.2296C52.3892 20.5254 52.7352 26.5672 52.7352 32.5076Z" fill="#FFD6B8"/>
<path d="M57.6331 33.6156C57.6331 31.2158 57.6064 25.7252 55.9893 20.2729C54.5386 15.3954 51.7285 10.917 47.4265 8.14975C47.2117 8.01261 46.9749 7.91421 46.7268 7.85893C46.2357 5.64848 44.5283 3.75476 42.3131 2.68954C39.1884 1.18698 35.7512 0.376526 32.3006 0.193918C26.3625 -0.119446 20.4457 1.79568 15.8959 5.6451C10.2602 9.09773 6.34095 15.3763 4.64022 21.7292C3.12138 27.398 3.012 33.3575 3.2843 39.1886C3.34679 40.5502 4.42706 41.8634 5.86778 41.798C7.21364 41.7372 8.52043 40.6483 8.45236 39.1886C8.34076 36.8383 8.29055 34.4836 8.37425 32.1322C8.41442 31.014 8.48584 29.8959 8.59744 28.7822C8.71172 28.8305 8.83013 28.8683 8.95119 28.8949C14.1516 29.9838 19.2661 29.1406 23.9141 27.0508C24.3538 28.2907 25.7265 29.2635 27.0645 28.7946C29.0523 28.0886 30.9075 27.0482 32.5517 25.7173C32.5774 25.7658 32.6019 25.8154 32.6309 25.8616C33.4356 27.1207 34.8629 27.4397 36.1664 26.7983C40.1838 24.8065 43.4201 21.1217 44.9937 16.8608L45.064 16.9668C48.682 19.2854 50.0234 19.8558 51.0992 23.9295C51.6571 26.0622 53.2876 36.4832 53.6201 40.0283C53.7485 41.3922 57.7035 41.3348 57.7035 40.0283C57.7068 38.3059 57.6331 36.0166 57.6331 33.6156Z" fill="black"/>
<path d="M10.4075 45.2417C5.66579 46.0195 2.00541 41.1556 1.78556 37.3163C1.70967 35.4699 3.52312 34.7 5.60776 34.6211C9.91652 34.3957 13.2019 37.9216 12.317 40.716C12.0715 42.5251 11.5324 44.9937 10.4075 45.2417Z" fill="#FFD6B8"/>
<path d="M9.08844 41.5489C9.065 41.7743 8.19568 42.5634 7.43347 42.2117C6.4637 41.3742 7.66894 39.9572 6.95919 39.1569C6.20256 38.8109 5.20822 38.1988 5.77625 37.8268C6.91007 37.084 8.80387 39.211 9.51139 37.4887C9.77857 36.8372 9.87691 36.1276 9.79709 35.427C10.3309 35.7776 10.8119 36.2039 11.2255 36.6929C11.1273 38.4288 10.0426 40.1523 9.08844 41.5489Z" fill="#E3B09A"/>
<path d="M50.7509 45.2417C55.4927 46.0195 59.1531 41.1556 59.3729 37.3163C59.4488 35.4699 57.5628 34.3788 55.4782 34.2999C51.1694 34.0744 47.9565 37.9216 48.8415 40.716C49.087 42.5251 49.626 44.9937 50.7509 45.2417Z" fill="#FFD6B8"/>
<path d="M52.07 41.5489C52.0935 41.7743 52.9628 42.5634 53.7239 42.2117C54.6948 41.3742 53.4895 39.9572 54.1993 39.1569C54.9559 38.8109 55.9503 38.1988 55.3822 37.8268C54.2484 37.084 52.3546 39.211 51.6471 37.4887C51.3794 36.8373 51.281 36.1276 51.3614 35.427C50.8276 35.7776 50.3465 36.2039 49.9329 36.6929C50.0311 38.4288 51.1159 40.1523 52.07 41.5489Z" fill="#E3B09A"/>
<path d="M42.9302 31.7699C42.9648 30.5919 42.2312 29.6142 41.2917 29.586C40.3522 29.5579 39.5626 30.49 39.528 31.6679C39.4933 32.8459 40.2269 33.8236 41.1664 33.8518C42.1059 33.8799 42.8956 32.9479 42.9302 31.7699Z" fill="#2E2E2E"/>
<path d="M22.6522 31.1613C22.6868 29.9833 21.9533 29.0056 21.0138 28.9774C20.0743 28.9492 19.2846 29.8813 19.25 31.0593C19.2154 32.2372 19.9489 33.215 20.8884 33.2431C21.8279 33.2713 22.6176 32.3392 22.6522 31.1613Z" fill="#2E2E2E"/>
<path d="M43.9112 28.2671C43.7002 28.3133 43.4648 28.0473 43.13 27.7305C43.0865 27.6911 43.0441 27.6494 43.0017 27.6054C42.9593 27.5614 42.9046 27.5242 42.8566 27.4803C42.7651 27.3901 42.649 27.3101 42.5419 27.2188C42.0519 26.841 41.5006 26.5523 40.9126 26.3655C40.7764 26.3294 40.6447 26.2798 40.5186 26.2527C40.4561 26.2392 40.3936 26.2167 40.3345 26.2054C40.2753 26.1941 40.2162 26.184 40.1593 26.1716C39.7129 26.0792 39.3603 26.0386 39.2766 25.8334C39.2375 25.7365 39.2766 25.6181 39.4071 25.4795C39.4423 25.442 39.4795 25.4066 39.5187 25.3735C39.5652 25.3383 39.6141 25.3062 39.6649 25.2777C39.7871 25.2034 39.9179 25.1447 40.0544 25.103C40.1292 25.0793 40.2095 25.0568 40.2943 25.0342C40.3791 25.0117 40.4673 25.0072 40.5599 24.9948C40.7574 24.9718 40.9567 24.9688 41.1547 24.9858C42.0708 25.0713 42.9171 25.5165 43.5116 26.2257C43.6391 26.3795 43.7513 26.5456 43.8464 26.7217C43.8906 26.8004 43.9308 26.8812 43.967 26.964C43.9982 27.0467 44.0261 27.1256 44.0507 27.2007C44.0952 27.3377 44.123 27.4796 44.1332 27.6234C44.1392 27.6818 44.1415 27.7406 44.1399 27.7993C44.1363 27.8512 44.1292 27.9028 44.1187 27.9537C44.0841 28.1397 44.0116 28.2434 43.9112 28.2671Z" fill="#2E2E2E"/>
<path d="M22.9633 26.5582C22.8696 26.7521 22.5236 26.7837 22.0705 26.8141C22.0136 26.8141 21.9589 26.8231 21.8942 26.8254C21.8295 26.8276 21.7703 26.84 21.7056 26.8445C21.5784 26.8513 21.4422 26.8761 21.3027 26.8885C21.0226 26.9302 20.7224 26.9832 20.41 27.061C20.0975 27.1387 19.8107 27.2447 19.5451 27.345C19.4168 27.4014 19.2862 27.4465 19.1712 27.5028C19.1132 27.5299 19.0518 27.5513 18.9971 27.5783C18.9424 27.6054 18.8855 27.6302 18.8376 27.6539C18.4235 27.8432 18.1088 27.992 17.9325 27.8647C17.8488 27.8038 17.8209 27.6832 17.8443 27.5039C17.8587 27.3998 17.8892 27.2986 17.9347 27.2041C17.9882 27.0803 18.0548 26.9628 18.1334 26.8536C18.1769 26.7927 18.2238 26.7307 18.2751 26.6664C18.3295 26.6022 18.3873 26.5408 18.4481 26.4827C18.5806 26.3507 18.7243 26.2307 18.8777 26.1243C19.5893 25.6357 20.4472 25.4129 21.3038 25.4942C21.4888 25.5125 21.6718 25.5472 21.8507 25.5979C21.9344 25.6238 22.0147 25.6441 22.0906 25.6745C22.1665 25.7049 22.2368 25.7376 22.3038 25.7703C22.4253 25.827 22.5398 25.8977 22.6452 25.9811C22.7305 26.0412 22.8059 26.1147 22.8684 26.1987C22.9733 26.3429 23.0035 26.4635 22.9633 26.5582Z" fill="#2E2E2E"/>
<path d="M35.5047 48.6849C35.6191 48.5303 35.7235 48.3684 35.8171 48.2002C36.6988 46.6108 36.7908 44.5618 35.8253 43.0928C32.4364 44.0722 29.3328 43.7982 26.3727 43.1638C25.8984 44.8636 26.1596 46.7776 27.1416 48.2362C28.1114 49.6813 29.7864 50.6406 31.5162 50.6586C32.2866 50.6623 33.0475 50.4861 33.7394 50.1438C34.4313 49.8014 35.0354 49.3021 35.5047 48.6849Z" fill="#A72231"/>
<path d="M34.2728 45.0862C34.608 44.9447 35.1845 44.4605 35.1845 44.4605C35.1845 44.4605 35.8253 43.5825 35.8253 43.0928L30.9841 43.5825L26.6269 43.0927C28.0794 45.0515 30.9842 46.0309 34.2728 45.0862Z" fill="white"/>
<path d="M33.8888 49.9485C32.3794 48.8367 30.0388 47.9387 28.3321 48.2859C27.9074 48.3621 27.4924 48.2588 27.1051 48.4869C27.3172 48.6962 28.7957 49.7904 29.0475 49.9485C31.4681 51.4176 32.2737 50.573 33.8888 49.9485Z" fill="#FA4B51"/>
<path d="M31.4682 39.1752C32.2703 39.1752 32.9206 37.8598 32.9206 36.2371C32.9206 34.6144 32.2703 33.299 31.4682 33.299C30.6661 33.299 30.0158 34.6144 30.0158 36.2371C30.0158 37.8598 30.6661 39.1752 31.4682 39.1752Z" fill="#E3B09A"/>
<path d="M46.094 5.47933C44.5093 3.80317 42.4325 2.64441 40.3267 1.76969C38.4055 0.979176 36.3894 0.448552 34.3306 0.191602C30.196 -0.326151 25.9989 0.20338 22.1174 1.73249C20.1773 2.49783 18.3487 3.52504 16.6815 4.78611C16.4687 4.94843 16.2582 5.11411 16.0499 5.2832C15.8981 5.40606 15.9227 5.66871 16.0499 5.79721C16.1184 5.86303 16.2092 5.89973 16.3038 5.89973C16.3983 5.89973 16.4892 5.86303 16.5577 5.79721C18.1302 4.52819 19.8652 3.47943 21.7157 2.67935C23.5675 1.88058 25.5116 1.32047 27.502 1.01221C29.4922 0.700971 31.5129 0.639258 33.5182 0.828478C35.511 1.01512 37.4714 1.46222 39.3502 2.15858C40.3013 2.51204 41.2261 2.93356 42.1178 3.41993C43.1369 3.95707 44.0902 4.61308 44.958 5.37451C45.1756 5.57177 45.3843 5.77692 45.5862 5.98996C45.9065 6.33263 46.4143 5.81749 46.094 5.47933Z" fill="#2E2E2E"/>
<path d="M13.7186 7.24345C13.6293 7.09015 13.3838 6.99433 13.2265 7.11382C10.3473 9.31075 8.1823 12.3103 6.66904 15.5994C4.975 19.2832 4.10231 23.2645 3.57223 27.2762C3.25418 29.6828 3.05552 32.1029 2.86246 34.5219C2.86229 34.6063 2.89131 34.688 2.94449 34.7531C2.99768 34.8181 3.07169 34.8623 3.15374 34.8781C2.28551 35.32 1.5512 36.0312 1.21752 36.9713C0.736539 38.324 1.29452 39.7995 1.9987 40.9571C2.65606 42.0217 3.5024 42.9545 4.49514 43.7086C5.60022 44.5555 6.86885 45.1587 8.21911 45.4795C8.6655 45.5855 8.86193 44.8855 8.41108 44.7784C6.24275 44.2677 4.46948 42.7494 3.16603 40.9165C2.48305 39.9528 1.82684 38.7399 1.96968 37.5135C2.09802 36.4506 2.71738 35.8588 3.64364 35.4372C5.00512 34.8184 6.59539 35.0573 8.00709 35.338C8.10048 35.3574 8.19765 35.3431 8.28161 35.2974C8.31733 35.3109 8.35507 35.3182 8.39321 35.3188C8.48789 35.3168 8.57813 35.2779 8.64509 35.2103C8.71205 35.1427 8.75055 35.0515 8.75255 34.9559L9.13088 31.3601C9.15208 31.1651 8.95121 30.9971 8.77154 30.9971C8.67677 30.9988 8.58635 31.0377 8.51933 31.1053C8.45231 31.173 8.41392 31.2644 8.4122 31.3601C8.29688 32.4445 8.18267 33.5285 8.06959 34.6121C6.66681 34.3393 5.16808 34.1398 3.78093 34.6121C3.68942 34.6425 3.60012 34.6775 3.51084 34.7135C3.54488 34.6563 3.56515 34.5918 3.56999 34.5253C3.90478 30.3264 4.25631 26.1073 5.24395 22.0031C6.09766 18.4434 7.44909 14.9829 9.55827 11.9845C10.6779 10.3721 12.035 8.94205 13.5825 7.74394C13.6648 7.69448 13.725 7.61473 13.7504 7.52141C13.7758 7.42809 13.7644 7.32846 13.7186 7.24345Z" fill="#2E2E2E"/>
<path d="M45.7447 15.9308C45.5907 15.8395 45.3329 15.8812 45.2526 16.0616C44.3029 18.1965 43.3108 20.3686 41.841 22.1992C40.5253 23.8359 38.8279 25.219 36.779 25.7736C35.5117 26.1159 34.1809 26.1403 32.9021 25.8446C32.8612 25.8352 32.8189 25.8329 32.7771 25.8379C33.3229 25.1627 33.8243 24.4522 34.2781 23.7108C35.0061 22.5344 35.6176 21.2885 36.1038 19.991C36.1245 19.8997 36.1095 19.8038 36.062 19.7233C36.0144 19.6428 35.938 19.584 35.8485 19.559C35.7591 19.534 35.6636 19.5448 35.5818 19.5892C35.5001 19.6335 35.4385 19.708 35.4097 19.7971C34.6262 21.9125 33.4809 23.8725 32.0261 25.5876C30.7494 27.0654 29.0543 28.3425 27.0254 28.2929C26.1461 28.2881 25.2949 27.9789 24.6138 27.4171C25.7722 26.8817 26.8458 26.1354 27.656 25.1356C27.7206 25.0662 27.7566 24.9745 27.7566 24.8792C27.7566 24.7839 27.7206 24.6921 27.656 24.6227C27.5287 24.4942 27.2709 24.4694 27.1471 24.6227C25.6528 26.4612 23.3751 27.2784 21.1487 27.7981C19.9145 28.0866 18.6624 28.3064 17.4125 28.5172C16.0114 28.7722 14.5944 28.9281 13.1718 28.9839C11.5916 29.0256 10.0136 28.8644 8.50926 28.3606C8.06846 28.2129 7.87986 28.914 8.31732 29.0605C11.1284 30.0029 14.1349 29.7707 17.0118 29.3153C18.3331 29.1068 19.6567 28.8723 20.9635 28.5849C21.9597 28.3753 22.9384 28.0882 23.8907 27.7259C25.3481 29.2443 27.7151 29.3119 29.5364 28.4834C30.6635 27.9705 31.6244 27.1544 32.4569 26.2132C32.4518 26.2904 32.4751 26.3667 32.5222 26.4276C32.5694 26.4885 32.6371 26.5298 32.7124 26.5435C33.879 26.8096 35.0867 26.8358 36.2635 26.6204C37.4404 26.4051 38.5622 25.9526 39.5622 25.29C41.4772 24.0287 42.9157 22.1801 44.0384 20.1939C44.727 18.9765 45.3084 17.7028 45.8764 16.4257C45.9206 16.3417 45.9316 16.2439 45.9072 16.152C45.8827 16.0601 45.8246 15.9811 45.7447 15.9308Z" fill="#2E2E2E"/>
<path d="M52.4249 26.7555C52.3211 25.5674 52.1481 24.3883 51.7229 23.2611C51.3482 22.2805 50.8282 21.363 50.1807 20.5401C49.4607 19.6245 48.587 18.8438 47.5995 18.2338C47.2044 17.9881 46.8417 18.617 47.2368 18.8617C48.8974 19.8951 50.1952 21.4287 50.9474 23.2465C51.3737 24.2869 51.5757 25.3882 51.6828 26.5052C51.8022 27.7621 51.8803 29.0257 51.9752 30.2848C52.083 31.7344 52.192 33.1836 52.3021 34.6324C52.3047 34.728 52.3435 34.8191 52.4106 34.8866C52.4777 34.9542 52.5679 34.9931 52.6626 34.9954C52.7576 34.9945 52.8485 34.956 52.9157 34.8881C52.9829 34.8202 53.0211 34.7284 53.0219 34.6324C52.8244 32.0105 52.6548 29.3796 52.4249 26.7555Z" fill="#2E2E2E"/>
<path d="M42.1769 14.6932C42.0084 14.647 41.7618 14.7518 41.7305 14.9479C41.452 16.981 40.7804 18.9388 39.7542 20.7102C39.5187 21.1138 40.1403 21.4801 40.3747 21.0766C41.4358 19.2524 42.1323 17.2357 42.4247 15.1407C42.447 15.0483 42.4339 14.9508 42.3879 14.8678C42.3419 14.7848 42.2666 14.7224 42.1769 14.6932Z" fill="#2E2E2E"/>
<path d="M57.7615 24.9655C57.1912 22.3222 56.4982 19.6992 55.4425 17.2069C54.4917 14.9615 53.225 12.8378 51.5701 11.0478C50.6649 10.0629 49.6375 9.2002 48.5134 8.48117C48.1206 8.23093 47.759 8.85879 48.1507 9.1079C50.0746 10.3321 51.6638 12.0387 52.9103 13.9459C54.2897 16.0594 55.2539 18.413 55.977 20.8286C56.4056 22.2545 56.7582 23.703 57.0673 25.1594C57.1655 25.6159 57.8597 25.422 57.7615 24.9655Z" fill="#2E2E2E"/>
<path d="M59.5671 36.7234C59.3941 36.0403 58.9488 35.4496 58.4143 35.0089C57.8126 34.5172 57.1084 34.1694 56.3547 33.9918C55.6009 33.8141 54.8171 33.8112 54.062 33.9832C53.61 34.0869 53.802 34.7868 54.2528 34.6843C54.8341 34.5547 55.4354 34.5456 56.0203 34.6576C56.6052 34.7696 57.1614 35.0003 57.6555 35.3358C58.123 35.6548 58.5583 36.0899 58.7803 36.6219C59.0437 37.2498 58.9634 37.9746 58.8138 38.6216C58.5114 39.9258 57.8094 41.0902 57.0774 42.1903C56.7266 42.7497 56.3074 43.2621 55.8297 43.7155C55.4167 44.0821 54.947 44.378 54.4392 44.5913C53.2705 45.0891 51.9635 45.1463 50.7565 44.7525C50.3101 44.606 50.1271 45.3071 50.5657 45.4536C51.4825 45.7468 52.4555 45.8133 53.403 45.6475C54.3505 45.4818 55.2447 45.0886 56.0105 44.5011C56.5632 44.0531 57.0462 43.5238 57.4434 42.9309C58.2781 41.7428 59.0738 40.4511 59.4521 39.0297C59.653 38.2902 59.7635 37.4752 59.5671 36.7234Z" fill="#2E2E2E"/>
<path d="M25.7041 58.0747C25.5827 57.6949 25.3557 57.3584 25.0501 57.1053C24.7401 56.8713 24.3913 56.695 24.0201 56.5845C23.2389 56.3264 22.4577 56.119 21.6766 55.853C18.6277 54.8058 15.6693 53.2672 13.5166 50.7918C12.4014 49.5343 11.5836 48.0373 11.1251 46.4137C11.0034 45.9629 10.3093 46.1545 10.4309 46.6065C11.2434 49.6049 13.3325 52.0802 15.8378 53.8127C17.235 54.7788 18.7695 55.5261 20.3475 56.1393C21.1208 56.4391 21.9098 56.7029 22.6988 56.9464C23.0827 57.0647 23.4733 57.1651 23.8549 57.2936C24.1797 57.4063 24.5067 57.5472 24.7477 57.8053C24.9988 58.0803 25.1004 58.4737 25.135 58.8378C25.1649 59.2978 25.172 59.7591 25.1562 60.2198L25.1361 63.438C25.1361 63.9058 25.8525 63.9069 25.8559 63.438C25.8618 62.4844 25.8678 61.5307 25.8737 60.5771C25.876 59.7633 25.9764 58.8581 25.7041 58.0747Z" fill="#2E2E2E"/>
<path d="M49.6997 47.7676C49.6168 47.721 49.5193 47.7085 49.4275 47.7329C49.3358 47.7573 49.2569 47.8166 49.2075 47.8984C47.5425 50.2294 45.7759 52.6755 43.2929 54.1826C42.6929 54.549 42.0539 54.8458 41.3879 55.0674C40.7686 55.2714 40.1347 55.427 39.5142 55.631C38.2375 56.0436 37.0077 56.7052 36.539 58.0602C35.981 59.6811 36.7622 61.435 36.2243 63.0571C36.0782 63.5012 36.7734 63.6928 36.9185 63.2498C37.1606 62.5126 37.1551 61.727 37.1115 60.9605C37.0702 60.2458 36.9787 59.5064 37.097 58.7951C37.1912 58.1503 37.5208 57.5644 38.021 57.1528C38.4752 56.7819 39.0366 56.5553 39.5834 56.3705C40.2095 56.1608 40.8522 56.0041 41.4805 55.8069C42.1527 55.5921 42.8008 55.3073 43.4145 54.9569C44.6666 54.2412 45.7648 53.2661 46.7412 52.2099C47.8706 50.9835 48.8549 49.6286 49.8235 48.2726C49.8484 48.2313 49.865 48.1854 49.8722 48.1376C49.8795 48.0898 49.8773 48.041 49.8658 47.994C49.8542 47.9471 49.8336 47.9029 49.8051 47.864C49.7766 47.8252 49.7408 47.7924 49.6997 47.7676Z" fill="#2E2E2E"/>
</g>
<defs>
<clipPath id="clip0_120_46438">
<rect width="61" height="95" fill="white"/>
</clipPath>
</defs>
</svg>
