<svg width="38" height="27" viewBox="0 0 38 27" fill="none" xmlns="http://www.w3.org/2000/svg">
<path d="M37.406 7.92004L19.2762 0.0589388C19.097 -0.0196463 18.9028 -0.0196463 18.7235 0.0589388L0.593726 7.92004C0.239624 8.07157 0 8.50172 0 8.98676C0 9.47181 0.239632 9.90233 0.593726 10.0539L3.46001 11.289V23.5858C3.46001 24.2059 3.84649 24.709 4.32344 24.709C4.80009 24.709 5.18656 24.2059 5.18656 23.5858V12.0418L6.91311 12.7941L6.9134 21.3403C6.89635 21.8528 7.1487 22.3149 7.52621 22.463L18.7497 26.9552C18.9133 27.0149 19.0867 27.0149 19.2503 26.9552L30.4738 22.463C30.8513 22.3149 31.1036 21.8528 31.0866 21.3403V12.7941L37.4063 10.1102C37.7604 9.95869 38 9.52853 38 9.0435C38 8.55845 37.7604 8.12793 37.4063 7.97639L37.406 7.92004ZM29.3601 20.5095L19.0002 24.7095L8.64032 20.5095V13.5354L18.7242 17.9715C18.9034 18.0501 19.0977 18.0501 19.2769 17.9715L29.3608 13.5354L29.3601 20.5095ZM19.0002 15.7252L3.59875 8.98724L19.0002 2.30567L34.4017 8.98724L19.0002 15.7252Z" fill="#00814E"/>
</svg>
