<svg width="54" height="49" viewBox="0 0 54 49" fill="none" xmlns="http://www.w3.org/2000/svg">
<path d="M28.3491 23.8736C27.8139 23.3531 27.4419 22.7163 27.1691 22.0569C27.094 22.8983 27.643 23.8485 28.3099 24.4133C28.6591 24.7092 29.1751 24.982 29.6098 24.8366C29.8764 24.7478 30.0238 24.5079 30.0314 24.2255C29.6063 24.7697 28.8258 24.3367 28.3491 23.8736Z" fill="#A36094"/>
<path d="M30.1305 8.40088C26.5691 6.60993 23.1564 6.41629 20.5228 7.856C17.3802 9.57425 15.6029 12.7522 15.5319 16.5296C15.514 17.4656 15.5691 18.4254 15.6987 19.3981C14.8706 20.482 13.8642 21.6381 12.6952 22.6937C12.2302 22.8307 11.7838 23.0147 11.365 23.2437C11.2306 23.3171 11.0949 23.3988 10.9392 23.5004L3.48976 27.8491C-0.00764664 29.761 -1.05198 34.1901 1.16206 37.7225C3.3761 41.2542 8.02323 42.5717 11.5048 40.6682L12.2708 40.286L19.4392 47.3064C20.0937 48.0455 21.3364 48.2224 22.2795 47.7072C22.2877 47.7026 22.296 47.6981 22.3036 47.693L24.2055 46.5035C24.4136 46.3736 24.5748 46.1967 24.6795 45.9934C24.7174 45.9439 24.7525 45.8918 24.7828 45.8371C25.4931 44.5672 25.5261 44.4154 25.5433 44.3337C25.6556 43.81 25.4173 43.2858 24.9371 42.9988L23.071 41.8827C22.2533 41.3938 21.5286 40.7897 20.9169 40.0866L18.417 37.2162L19.1375 36.856C19.3621 36.7608 19.5481 36.672 19.7224 36.5768C20.1412 36.3478 20.5304 36.0731 20.8866 35.7585C22.6025 35.3506 24.3557 35.1872 25.9374 35.1506C26.5463 35.5404 27.167 35.8936 27.7946 36.2075C31.6454 38.1323 34.8693 38.3304 38.4122 36.3934C41.0464 34.9537 42.5358 32.0801 42.6067 28.3033C42.6749 24.6796 41.4191 20.621 39.0707 16.8751C36.7224 13.1285 33.5474 10.1191 30.1305 8.40088ZM22.9497 28.2448L26.8467 25.5615L22.4227 27.4258L24.6099 25.7996L21.8827 26.7317C21.8586 26.6944 21.8344 26.6571 21.811 26.6198L23.3334 25.4824L21.4053 25.9649C21.3784 25.9199 21.3515 25.8755 21.3254 25.8304L22.5392 24.906L20.963 25.1942C20.9355 25.144 20.9079 25.0939 20.8804 25.0437L21.9743 24.2241L20.5607 24.4306C20.5332 24.3759 20.507 24.3213 20.4794 24.2666L21.5148 23.4908L20.2018 23.6825C20.1777 23.6297 20.1536 23.577 20.1302 23.5242L25.8416 21.4451C25.6591 22.2614 25.8712 23.3061 26.494 24.3007C26.8288 24.8353 27.2366 25.2798 27.6733 25.6156L23.0241 28.338C22.9993 28.3084 22.9745 28.2769 22.9497 28.2448ZM29.9597 25.3538C29.3576 25.6825 28.1225 25.1485 27.3124 23.8562C26.5023 22.5638 26.6076 21.2965 27.2097 20.9671C27.8118 20.6384 29.0469 21.1723 29.8571 22.4647C30.6672 23.7571 30.5611 25.0244 29.9597 25.3538ZM19.7768 17.1131C19.4503 17.5679 19.1182 18.0214 18.7621 18.4569C19.2663 17.3524 19.8801 16.2884 20.498 15.2327C21.3095 13.8458 22.1892 12.4852 23.1337 11.1696C23.4602 10.7148 23.7922 10.2619 24.1491 9.82578C23.6455 10.931 23.031 11.9943 22.4138 13.05C21.6023 14.4376 20.7199 15.7975 19.7768 17.1131ZM18.7145 15.8728C18.9488 14.958 19.3497 14.0709 19.7706 13.2198C20.1915 12.3694 20.6592 11.5087 21.2565 10.7528C21.0236 11.6676 20.622 12.5547 20.2004 13.4058C19.7789 14.2562 19.3104 15.1163 18.7145 15.8728ZM27.6692 32.8263L30.6258 32.9782L26.5188 31.7726L33.3593 31.6626L25.5723 30.6481L31.6082 29.7719L25.9946 29.5616L30.6286 26.008C30.6534 25.9893 30.6748 25.9681 30.6947 25.9456C31.6206 25.1949 31.6344 23.5454 30.6761 22.017C30.4571 21.6677 30.207 21.3563 29.9377 21.0887L34.8404 17.1916L28.7948 20.2678C28.5565 20.154 28.3161 20.0723 28.0791 20.026L33.9972 15.0758C33.6844 14.6866 33.36 14.3057 33.0245 13.9352L27.2896 19.0604L32.2867 13.1549C31.3471 12.206 30.3179 11.3311 29.1799 10.5521C29.1599 10.5386 29.1399 10.5257 29.12 10.5122L23.8639 16.2819L28.5399 10.1461C28.0543 9.85859 27.55 9.60063 27.0396 9.35103C30.6093 10.3546 34.5021 13.4424 37.2707 17.8587C41.5617 24.7034 41.5521 32.1856 37.2494 34.5375C34.6427 35.9624 31.0502 35.1827 27.6692 32.8263ZM20.1632 46.7338C20.155 46.7242 20.1467 46.7152 20.1378 46.7068L13.1388 39.8518L13.3537 39.7444L14.9409 40.8785L14.0598 39.3919L14.3416 39.251L15.8915 40.3587L15.0311 38.9068L15.3294 38.7576L16.8422 39.8389L16.0018 38.4218L16.216 38.315L19.5164 42.1046C20.1329 42.8129 20.8631 43.4215 21.6863 43.9136L23.6717 45.1011C23.795 45.1751 23.8666 45.2954 23.868 45.4324C23.8694 45.5695 23.8005 45.691 23.6792 45.767L21.7897 46.9481C21.3102 47.2028 20.5476 47.1784 20.1632 46.7338ZM18.0822 37.6923C18.8475 38.4706 19.5722 39.2844 20.2955 40.0969C20.7908 40.6527 21.2916 41.1867 21.8827 41.6569C22.4448 42.104 23.0648 42.47 23.6772 42.8515C24.2503 43.2086 24.9709 43.5399 25.0522 44.2526C24.8152 43.6679 24.2469 43.4298 23.7068 43.1262C23.0792 42.773 22.4448 42.4199 21.8737 41.9895C20.7199 41.121 19.8457 39.9502 18.9701 38.8463C18.6691 38.4655 18.3694 38.0827 18.0822 37.6923ZM6.02895 32.3973C5.70518 31.0148 5.71207 29.6208 6.22321 28.2743C6.07648 28.4886 5.93939 28.7099 5.82091 28.9466C5.19817 30.1927 5.0473 31.5121 5.20437 32.8675C4.8806 31.4851 4.88749 30.091 5.39863 28.7446C5.2519 28.9588 5.11481 29.1801 4.99633 29.4168C4.37359 30.6629 4.22272 31.9823 4.37979 33.3378C4.05602 31.9553 4.0629 30.5613 4.57405 29.2148C4.42732 29.4291 4.29023 29.6504 4.17175 29.8871C3.549 31.1332 3.39814 32.4526 3.5552 33.808C3.23143 32.4256 3.23832 31.0315 3.74947 29.6851C3.60274 29.8993 3.46565 30.1206 3.34716 30.3574C2.72442 31.6034 2.57356 32.9228 2.73062 34.2783C2.40685 32.8958 2.41374 31.5018 2.92489 30.1554C2.77816 30.3696 2.64107 30.5909 2.52258 30.8276C1.89984 32.0737 1.74898 33.3931 1.90604 34.7485C1.58227 33.3654 1.58916 31.9707 2.10099 30.6237C2.22086 30.3091 2.3669 30.0113 2.53085 29.7256C2.94004 29.292 3.42432 28.9138 3.98162 28.6089L9.85426 25.1807C9.52291 25.568 8.49649 27.1396 8.29603 27.5397C7.6726 28.7858 7.52242 30.1052 7.67949 31.4606C7.35572 30.0782 7.36261 28.6841 7.87375 27.3377C7.72702 27.5519 7.58993 27.7732 7.47145 28.0099C6.84871 29.256 6.69784 30.5754 6.85491 31.9309C6.53114 30.5484 6.53802 29.1544 7.04917 27.808C6.90244 28.0222 6.76535 28.2435 6.64687 28.4802C6.02275 29.7231 5.87257 31.0425 6.02895 32.3973ZM22.0266 33.0502C22.3421 33.2606 22.6687 33.4484 23.0048 33.617C22.3587 33.469 21.7304 33.2593 21.1215 32.9698C19.9917 32.4326 19.0252 31.6864 18.1634 30.825C18.9474 31.8363 19.8643 32.7195 20.9802 33.4156C21.273 33.5983 21.5754 33.7604 21.8847 33.9058C21.2586 33.7842 20.6475 33.6015 20.0503 33.3416C18.915 32.8482 17.9437 32.1271 17.0812 31.2876C17.8727 32.2815 18.8055 33.1428 19.9407 33.7932C20.2135 33.9495 20.4925 34.0885 20.777 34.2126C20.2211 34.1252 19.6748 33.9856 19.1375 33.7816C17.9334 33.3249 16.9056 32.6102 16.0004 31.7495C16.8119 32.7421 17.7749 33.5938 18.9515 34.2024C19.1899 34.3252 19.4317 34.4352 19.6762 34.5343C19.1203 34.468 18.5713 34.3452 18.0312 34.1528C16.8374 33.7276 15.8192 33.0489 14.9189 32.212C15.7462 33.2001 16.7368 34.0435 17.9458 34.6083C18.149 34.7028 18.3536 34.7884 18.5602 34.8656C18.0229 34.8186 17.4904 34.7151 16.9634 34.5446C15.762 34.1554 14.7418 33.4979 13.8366 32.6745C14.6895 33.6703 15.7179 34.5092 16.9751 35.0316C17.1281 35.0953 17.2817 35.1532 17.4353 35.2065C16.9352 35.177 16.4364 35.0959 15.9391 34.9544C14.7129 34.6051 13.6734 33.9566 12.7544 33.1358C13.601 34.1033 14.6144 34.9048 15.8557 35.397C16.0093 35.4581 16.1643 35.5134 16.3193 35.5636C15.8309 35.5488 15.3411 35.4806 14.8527 35.3506C13.6265 35.0251 12.5946 34.4063 11.6729 33.597C12.5298 34.5562 13.5342 35.3005 14.7735 35.7842C14.9657 35.8595 15.16 35.9232 15.3556 35.9792C13.3324 35.7669 11.4104 34.6044 10.2593 32.7684C8.77686 30.4043 8.98972 27.4767 10.716 25.595C12.8185 24.3238 14.582 22.5895 15.9625 20.9234C16.4571 23.2392 17.3864 25.6014 18.8137 27.8774C20.0523 29.853 21.5313 31.5867 23.1536 33.0348C22.8133 32.9067 22.4792 32.7594 22.152 32.5883C21.0429 32.0093 20.0957 31.2387 19.245 30.3631C20.0213 31.3931 20.9244 32.3149 22.0266 33.0502ZM22.7624 30.4764C21.1339 28.6841 19.8154 26.6674 18.8193 24.5104C17.6289 21.9333 16.9338 19.0565 17.117 16.2414C17.2872 13.6264 18.2964 10.9007 20.6985 9.36647C20.8817 9.24939 21.076 9.14968 21.2675 9.04546C20.2838 9.68748 19.4682 10.4684 18.8833 11.4546C18.1986 12.6087 17.8369 13.9152 17.695 15.2218C17.3974 17.9603 17.9981 20.7413 19.0383 23.2971C19.8973 25.4078 21.096 27.4059 22.5543 29.2058C24.3316 31.3995 26.5546 33.3744 29.1799 34.6565C31.6096 35.8434 34.4711 36.4443 37.0957 35.4536C37.2907 35.3802 37.4774 35.2895 37.6668 35.2046C36.5653 35.8074 35.4018 36.1561 34.1191 36.2011C32.6808 36.2519 31.2582 35.9605 29.9232 35.4722C27.1298 34.45 24.6905 32.5992 22.7624 30.4764ZM41.7897 24.8584C41.9792 25.8974 42.1004 26.9504 42.0666 28.0061C42.037 28.9202 41.902 29.7996 41.6781 30.688C42.037 28.9762 42.0425 27.2779 41.7594 25.5538C41.4501 23.6664 40.8239 21.815 40.009 20.0665C38.3364 16.4794 35.8137 13.1555 32.574 10.6589C30.9696 9.42244 29.1799 8.48772 27.1884 7.92869C28.9746 8.36292 30.5997 9.10658 32.0869 10.1294C33.7671 11.2841 35.2158 12.6615 36.5164 14.1809C37.8514 15.7409 38.977 17.4766 39.8712 19.2887C40.7475 21.0636 41.437 22.9272 41.7897 24.8584Z" fill="#A36094"/>
<path d="M32.6194 7.96277C32.9618 7.59287 33.278 7.20046 33.5852 6.80483C34.4167 5.73566 35.1538 4.61053 35.8792 3.47768C35.3777 3.49827 34.8769 3.51885 34.3768 3.54587C35.0333 2.39694 35.6608 1.22034 36.1499 0C35.7159 0.488908 35.3143 1.00355 34.9258 1.52462C34.2424 2.44068 33.6135 3.38762 32.9839 4.33649C33.473 4.32491 33.9614 4.31268 34.4498 4.29403C34.3871 4.4021 34.3223 4.50889 34.261 4.61696C33.6452 5.69578 33.0527 6.80804 32.6194 7.96277Z" fill="#A36094"/>
<path d="M37.3203 11.3954C37.7791 11.1349 38.2193 10.8447 38.6526 10.5482C39.783 9.77491 40.8446 8.92319 41.8972 8.06116C41.4136 7.93701 40.93 7.81285 40.4444 7.69577C41.4467 6.79 42.4304 5.85014 43.297 4.82922C42.7231 5.17017 42.172 5.54522 41.6313 5.92927C40.6799 6.60538 39.7699 7.32651 38.8593 8.04894C39.3284 8.17824 39.7975 8.30626 40.268 8.42849C40.1729 8.5134 40.0765 8.59639 39.9821 8.68195C39.0411 9.5311 38.1118 10.4208 37.3203 11.3954Z" fill="#A36094"/>
<path d="M45.3422 13.5724C46.5946 12.9999 47.8415 12.3894 49.0022 11.667C48.3437 11.8259 47.6954 12.024 47.0541 12.2337C45.9257 12.603 44.8221 13.0263 43.7172 13.4515C44.1202 13.7095 44.5232 13.9655 44.9303 14.217C44.3916 14.4596 43.857 14.7111 43.33 14.9755C42.5854 15.3492 41.8428 15.7404 41.1484 16.192C41.6712 16.0762 42.1851 15.9269 42.6949 15.77C44.0258 15.3602 45.3168 14.8558 46.6029 14.3386C46.184 14.0813 45.7652 13.824 45.3422 13.5724Z" fill="#A36094"/>
<path d="M49.7187 21.2199C49.3784 20.8757 49.0387 20.5316 48.6929 20.1919C50.0569 19.9192 51.4236 19.6078 52.738 19.1691C52.0581 19.1749 51.3781 19.2205 50.701 19.2791C49.5106 19.3826 48.3299 19.5448 47.1478 19.7075C47.4722 20.0485 47.7967 20.3881 48.1267 20.7239C47.5411 20.8378 46.9577 20.9613 46.3776 21.099C45.5586 21.2932 44.7367 21.5055 43.9459 21.7867C44.4825 21.7924 45.0205 21.7635 45.5558 21.7262C46.9542 21.6297 48.3368 21.4309 49.7187 21.2199Z" fill="#A36094"/>
<path d="M54 26.9769C53.3401 26.825 52.6684 26.7118 51.9974 26.6115C50.8167 26.4358 49.6298 26.3194 48.4415 26.2036C48.6647 26.6089 48.8893 27.0135 49.1193 27.4149C48.5214 27.3892 47.9235 27.3738 47.3255 27.3731C46.4803 27.3718 45.6281 27.3866 44.787 27.4761C45.3057 27.606 45.8348 27.7025 46.3632 27.7906C47.743 28.0203 49.1352 28.1483 50.5302 28.2641C50.2918 27.8517 50.0541 27.4394 49.8096 27.0309C51.2039 27.0824 52.6112 27.0972 54 26.9769Z" fill="#A36094"/>
</svg>
